<?xml version="1.0"?>
<svg xmlns="http://www.w3.org/2000/svg" viewBox="-71 1 511 511.99999" width="512px" height="512px" class=""><g><path d="m370.121094 184.808594c0 45.585937-29.421875 112.46875-87.453125 198.789062-42.410157 63.101563-85.453125 114.261719-85.871094 114.773438l-11.488281 13.617187-.007813.011719-11.476562-13.640625c-.429688-.507813-43.460938-51.75-85.871094-114.890625-58.03125-86.371094-87.453125-153.214844-87.453125-198.660156 0-101.902344 82.90625-184.808594 184.808594-184.808594 101.90625 0 184.8125 82.90625 184.8125 184.808594zm0 0" fill="#ffaa20" data-original="#FFAA20" class="" style="fill:#3FBF77" data-old_color="#ffaa20"/><path d="m370.121094 184.808594c0 45.585937-29.421875 112.46875-87.453125 198.789062-42.410157 63.101563-85.453125 114.261719-85.871094 114.773438l-11.488281 13.617187v-511.988281c101.90625 0 184.8125 82.90625 184.8125 184.808594zm0 0" fill="#ff8900" data-original="#FF8900" class="" style="fill:#44B274" data-old_color="#ff8900"/><path d="m316.855469 183.617188c0 40.878906-18.738281 77.460937-48.078125 101.613281-22.722656 18.707031-51.804688 29.941406-83.46875 29.941406-31.664063 0-60.742188-11.234375-83.464844-29.941406-29.34375-24.152344-48.078125-60.734375-48.078125-101.613281 0-72.53125 59.011719-131.542969 131.542969-131.542969 72.535156 0 131.546875 59.011719 131.546875 131.542969zm0 0" fill="#d5f3cb" data-original="#D5F3CB" class="" data-old_color="#d5f3cb" style="fill:#FFFFFF"/><path d="m316.855469 183.617188c0 40.878906-18.738281 77.460937-48.078125 101.613281-22.722656 18.707031-51.804688 29.941406-83.46875 29.941406v-263.097656c72.535156 0 131.546875 59.011719 131.546875 131.542969zm0 0" fill="#b6efab" data-original="#B6EFAB" class="" style="fill:#FFFFFF" data-old_color="#b6efab"/><path d="m244.855469 236.792969c-8.132813-8.125-17.636719-14.375-27.980469-18.554688 14.101562-9.949219 23.34375-26.355469 23.34375-44.882812 0-30.273438-24.636719-54.910157-54.910156-54.910157-30.269532 0-54.90625 24.636719-54.90625 54.910157 0 18.535156 9.246094 34.949219 23.359375 44.894531-9.445313 3.816406-18.207031 9.347656-25.832031 16.449219-14.398438 13.398437-23.550782 31.203125-26.085938 50.53125 22.722656 18.707031 51.800781 29.941406 83.46875 29.941406 31.664062 0 60.742188-11.234375 83.464844-29.941406-2.402344-18.265625-10.804688-35.320313-23.921875-48.4375zm0 0" fill="#7985eb" data-original="#7985EB" class="" data-old_color="#7985eb" style="fill:#9C9C9C"/><path d="m244.855469 236.792969c-8.132813-8.125-17.636719-14.375-27.980469-18.554688 14.101562-9.949219 23.34375-26.355469 23.34375-44.882812 0-30.273438-24.636719-54.910157-54.910156-54.910157v196.726563c31.664062 0 60.746094-11.234375 83.46875-29.941406-2.402344-18.265625-10.804688-35.320313-23.921875-48.4375zm0 0" fill="#4b5be6" data-original="#4B5BE6" class="active-path" data-old_color="#4b5be6" style="fill:#888282"/></g> </svg>
