<?xml version="1.0"?>
<svg xmlns="http://www.w3.org/2000/svg" xmlns:xlink="http://www.w3.org/1999/xlink" xmlns:svgjs="http://svgjs.com/svgjs" version="1.1" width="512" height="512" x="0" y="0" viewBox="0 0 512.004 512.004" style="enable-background:new 0 0 512 512" xml:space="preserve" class=""><g><g xmlns="http://www.w3.org/2000/svg"><g><path d="m503.535 394.447c-8.734-1.355-17.466-2.453-26.178-3.31v-15.651l6.687 4.611c1.733 1.195 3.711 1.769 5.668 1.769 3.177 0 6.301-1.511 8.241-4.324 3.136-4.546 1.991-10.773-2.556-13.909l-18.04-12.44v-10.364l2.83 1.952c4.546 3.135 10.772 1.992 13.909-2.556 3.136-4.546 1.991-10.773-2.556-13.909l-18.507-12.763c-3.417-2.356-7.937-2.358-11.354 0l-18.508 12.763c-4.547 3.136-5.691 9.362-2.556 13.909 1.94 2.813 5.063 4.324 8.241 4.324 1.957 0 3.936-.573 5.668-1.769l2.831-1.952v10.364l-18.04 12.44c-4.547 3.136-5.691 9.363-2.556 13.909s9.364 5.692 13.909 2.556l6.687-4.611v14.115c-21.644-1.19-43.062-.837-63.944 1.051v-12.554l6.687 4.611c1.733 1.195 3.711 1.769 5.668 1.769 3.177 0 6.301-1.511 8.241-4.324 3.136-4.546 1.991-10.773-2.556-13.909l-18.04-12.44v-10.364l2.831 1.952c1.733 1.195 3.711 1.769 5.668 1.769 3.177 0 6.301-1.511 8.241-4.324 3.136-4.547 1.991-10.773-2.556-13.909l-18.508-12.763c-3.418-2.357-7.936-2.357-11.354 0l-18.508 12.763c-4.547 3.136-5.691 9.362-2.556 13.909 3.135 4.546 9.364 5.691 13.909 2.556l2.831-1.952v10.364l-18.04 12.44c-4.547 3.136-5.691 9.363-2.556 13.909s9.363 5.692 13.909 2.556l6.687-4.611v14.858c-14.808 2.075-29.288 4.938-43.314 8.602-2.617.684-5.212 1.392-7.796 2.128-8.965-4.98-18.139-9.62-27.503-13.934v-15.526l6.073 4.188c1.733 1.195 3.711 1.769 5.668 1.769 3.177 0 6.301-1.511 8.241-4.324 3.136-4.546 1.991-10.773-2.556-13.909l-17.422-12.022v-9.414l2.323 1.602c1.732 1.195 3.711 1.769 5.668 1.769 3.177 0 6.301-1.511 8.241-4.324 3.136-4.546 1.991-10.773-2.556-13.909l-18-12.413c-3.418-2.357-7.936-2.357-11.354 0l-18 12.413c-4.547 3.136-5.691 9.363-2.556 13.909 3.136 4.548 9.363 5.692 13.909 2.556l2.323-1.602v9.414l-17.427 12.018c-3.758 2.591-5.183 7.293-3.798 11.413-17.232-5.839-35.001-10.667-53.275-14.432v-15.203l6.072 4.188c4.547 3.135 10.773 1.991 13.909-2.556 3.136-4.546 1.991-10.773-2.556-13.909l-17.423-12.019v-9.413l2.321 1.601c1.734 1.195 3.711 1.769 5.669 1.769 3.177 0 6.301-1.511 8.241-4.323 3.136-4.547 1.991-10.774-2.555-13.91l-17.999-12.413c-3.42-2.357-7.938-2.357-11.354 0l-18 12.413c-4.547 3.136-5.691 9.363-2.556 13.909 3.136 4.548 9.363 5.692 13.909 2.556l2.323-1.602v9.412l-17.428 12.019c-4.546 3.136-5.69 9.363-2.555 13.91 1.94 2.813 5.064 4.323 8.241 4.323 1.957 0 3.936-.573 5.669-1.769l6.072-4.188v11.537c-3.967-.641-7.95-1.248-11.96-1.793-10.991-1.495-22.089-2.604-33.27-3.372-.186-.016-.372-.032-.558-.037-25.752-1.741-51.963-1.559-78.463.549v-15.133l6.072 4.188c4.547 3.134 10.773 1.99 13.909-2.556s1.991-10.773-2.556-13.909l-17.422-12.018v-9.413l2.321 1.601c1.734 1.195 3.711 1.769 5.669 1.769 3.177 0 6.301-1.511 8.241-4.323 3.136-4.547 1.991-10.774-2.555-13.91l-17.999-12.413c-3.42-2.357-7.938-2.357-11.354 0l-18 12.413c-4.547 3.136-5.691 9.363-2.556 13.909 3.136 4.548 9.363 5.691 13.909 2.556l2.323-1.602v9.412l-17.428 12.019c-4.546 3.136-5.69 9.363-2.555 13.91 1.94 2.813 5.064 4.323 8.241 4.323 1.957 0 3.936-.573 5.669-1.769l6.072-4.188v17.082c-9.198 1.061-18.423 2.333-27.671 3.852-4.83.794-8.377 4.97-8.377 9.868v135.726c0 5.522 4.478 10 10 10h492.002c5.522 0 10-4.478 10-10v-97.674c0-4.931-3.595-9.126-8.467-9.882zm-153.632 23.113c14.686 4.186 34.695 15.691 51.847 29.923 16.913 14.033 29.958 29.482 37.783 44.52h-75.687c-6.398-24.083-22.786-49.989-41.832-67.13 9.112-2.8 18.414-5.24 27.889-7.313zm-98.797 15.342c-13.547-20.359-35.831-39.839-58.359-54.913 36.473 7.224 71.125 18.728 103.02 34.39-15.578 5.803-30.463 12.665-44.661 20.523zm17.621-54.489 6.073-4.188v6.951c-2.143-.855-4.286-1.71-6.448-2.532.125-.078.252-.147.375-.231zm-94.038 113.589h-154.689v-117.169c17.805-2.648 35.52-4.381 53.066-5.244 13.395 3.478 31.67 12.982 49.302 25.694 1.77 1.275 3.814 1.89 5.84 1.89 3.105 0 6.166-1.441 8.12-4.152 3.23-4.48 2.217-10.73-2.263-13.96-4.811-3.469-9.647-6.699-14.443-9.678 4.558.188 9.096.446 13.618.758 24.17 6.85 77.331 38.47 100.672 73.001-8.552 5.463-16.833 11.309-24.814 17.569-3.005-5.163-6.251-10.287-9.714-15.318-3.132-4.549-9.358-5.697-13.907-2.567-4.55 3.132-5.699 9.358-2.567 13.907 3.848 5.59 7.4 11.295 10.612 17.028-6.491 5.798-12.775 11.871-18.833 18.241zm124.944-59.379c18.302 12.307 35.881 36.626 43.372 59.379h-139.779c27.826-25.528 60.383-45.444 96.407-59.379zm192.369 59.379h-30.438c-13.466-33.108-46.516-63.049-76.393-80.372 34.065-4.063 69.924-3.692 106.831 1.345z" fill="#000000" data-original="#000000" style="" class=""/><path d="m98.726 439.198-17.427-12.018v-9.414l2.323 1.602c1.732 1.195 3.711 1.769 5.668 1.769 3.177 0 6.301-1.511 8.241-4.324 3.136-4.546 1.991-10.773-2.556-13.909l-18-12.413c-3.418-2.357-7.936-2.357-11.354 0l-18 12.413c-4.547 3.136-5.691 9.363-2.556 13.909 3.135 4.547 9.364 5.691 13.909 2.556l2.323-1.602v9.414l-17.427 12.018c-4.547 3.136-5.691 9.363-2.556 13.909s9.363 5.692 13.909 2.556l6.073-4.188v20.921c0 5.522 4.478 10 10 10s10-4.478 10-10v-20.921l6.073 4.188c1.733 1.195 3.711 1.769 5.668 1.769 3.177 0 6.301-1.511 8.241-4.324 3.139-4.548 1.994-10.776-2.552-13.911z" fill="#000000" data-original="#000000" style="" class=""/><path d="m313.448 126.096h-13.533c-5.522 0-10 4.478-10 10s4.478 10 10 10h13.533c2.739 21.849 14.307 40.985 31.027 53.7l-6.778 11.74c-2.762 4.783-1.123 10.898 3.66 13.66 1.575.909 3.294 1.342 4.99 1.342 3.456 0 6.818-1.794 8.67-5.002l6.757-11.704c9.545 4.031 20.03 6.263 31.026 6.263s21.479-2.232 31.024-6.263l6.757 11.703c1.853 3.208 5.213 5.002 8.67 5.002 1.696 0 3.416-.433 4.99-1.342 4.783-2.762 6.422-8.877 3.66-13.66l-6.777-11.739c16.721-12.716 28.29-31.851 31.028-53.701h13.532c5.522 0 10-4.478 10-10s-4.478-10-10-10h-13.532c-2.739-21.85-14.307-40.986-31.028-53.702l6.778-11.739c2.762-4.783 1.123-10.898-3.66-13.66-4.785-2.761-10.9-1.122-13.66 3.66l-6.757 11.704c-9.545-4.031-20.029-6.263-31.025-6.263s-21.48 2.232-31.025 6.263l-6.757-11.704c-2.761-4.781-8.877-6.421-13.66-3.66-4.783 2.762-6.422 8.877-3.66 13.66l6.778 11.739c-16.721 12.718-28.289 31.854-31.028 53.703zm139.353 10c0 33.084-26.916 60-60 60s-60-26.916-60-60 26.916-60 60-60 60 26.916 60 60z" fill="#000000" data-original="#000000" style="" class=""/><path d="m392.801 36.095c5.522 0 10-4.478 10-10v-16.094c0-5.522-4.478-10-10-10s-10 4.478-10 10v16.094c0 5.523 4.477 10 10 10z" fill="#000000" data-original="#000000" style="" class=""/><path d="m278.598 81.708 13.938 8.048c1.575.909 3.295 1.342 4.991 1.342 3.456 0 6.817-1.794 8.67-5.001 2.762-4.783 1.123-10.899-3.659-13.661l-13.938-8.048c-4.784-2.761-10.899-1.122-13.661 3.659-2.762 4.783-1.124 10.9 3.659 13.661z" fill="#000000" data-original="#000000" style="" class=""/><path d="m292.536 182.437-13.938 8.047c-4.783 2.762-6.422 8.877-3.66 13.66 1.853 3.208 5.213 5.002 8.67 5.002 1.696 0 3.416-.433 4.99-1.342l13.938-8.047c4.783-2.762 6.422-8.877 3.66-13.66-2.76-4.782-8.877-6.421-13.66-3.66z" fill="#000000" data-original="#000000" style="" class=""/><path d="m382.801 246.098v16.094c0 5.522 4.478 10 10 10s10-4.478 10-10v-16.094c0-5.522-4.478-10-10-10s-10 4.478-10 10z" fill="#000000" data-original="#000000" style="" class=""/><path d="m507.002 190.484-13.938-8.047c-4.785-2.762-10.9-1.123-13.66 3.66-2.762 4.783-1.123 10.898 3.66 13.66l13.938 8.047c1.575.909 3.294 1.342 4.99 1.342 3.456 0 6.818-1.794 8.67-5.002 2.762-4.783 1.123-10.898-3.66-13.66z" fill="#000000" data-original="#000000" style="" class=""/><path d="m488.074 91.098c1.696 0 3.416-.433 4.991-1.342l13.938-8.048c4.782-2.762 6.421-8.878 3.659-13.661-2.762-4.782-8.878-6.421-13.661-3.659l-13.938 8.048c-4.782 2.762-6.421 8.878-3.659 13.661 1.853 3.207 5.214 5.001 8.67 5.001z" fill="#000000" data-original="#000000" style="" class=""/><path d="m34.063 205.474h53.003c-10.96 4.47-18.708 15.237-18.708 27.786 0 16.542 13.458 30 30 30h100c16.542 0 30-13.458 30-30s-13.458-30-30-30h-7.857c12.844-4.882 21.999-17.314 21.999-31.85 0-15.54-10.462-28.684-24.711-32.758-4.209-27.941-28.38-49.43-57.477-49.43-19.861 0-37.922 9.963-48.535 26.108-3.697-1.342-7.629-2.045-11.622-2.045-15.304 0-28.282 10.144-32.564 24.062h-3.529c-18.782.001-34.062 15.282-34.062 34.065s15.28 34.062 34.063 34.062zm174.295 27.786c0 5.514-4.486 10-10 10h-100c-5.514 0-10-4.486-10-10s4.486-10 10-10c5.522 0 10-4.478 10-10 0-16.542 13.458-30 30-30s30 13.458 30 30c0 5.522 4.478 10 10 10h20c5.514 0 10 4.487 10 10zm-174.295-75.912h12.032c5.522 0 10-4.478 10-10 0-7.754 6.308-14.062 14.062-14.062 3.35 0 6.593 1.196 9.132 3.369 2.438 2.087 5.727 2.874 8.844 2.124 3.118-.751 5.687-2.952 6.906-5.918 5.906-14.36 19.753-23.639 35.275-23.639 21.022 0 38.125 17.103 38.125 38.125 0 5.522 4.478 10 10 10 7.754 0 14.063 6.309 14.063 14.063 0 7.276-5.555 13.279-12.647 13.991-8.988-13.344-24.233-22.142-41.495-22.142-17.293 0-32.554 8.832-41.536 22.214h-62.76c-7.754 0-14.063-6.309-14.063-14.063-.001-7.753 6.308-14.062 14.062-14.062z" fill="#000000" data-original="#000000" style="" class=""/><path d="m154.627 36.636c3.096.829 5.683 2.814 7.284 5.59 1.786 3.095 5.088 5.001 8.66 5.001h.001c3.572 0 6.874-1.906 8.66-5 1.603-2.775 4.19-4.761 7.286-5.591 5.335-1.429 8.502-6.911 7.072-12.246-1.428-5.335-6.907-8.501-12.246-7.072-3.947 1.057-7.584 2.818-10.772 5.178-3.188-2.359-6.824-4.121-10.771-5.178-5.331-1.433-10.817 1.736-12.246 7.072-1.43 5.335 1.737 10.817 7.072 12.246z" fill="#000000" data-original="#000000" style="" class=""/><path d="m215.126 111.636c3.097.83 5.684 2.814 7.285 5.59 1.786 3.095 5.088 5.001 8.66 5.001h.001c3.572 0 6.874-1.906 8.66-5 1.603-2.775 4.19-4.762 7.286-5.591 5.335-1.429 8.501-6.912 7.071-12.247-1.428-5.333-6.907-8.502-12.247-7.071-3.946 1.057-7.582 2.818-10.771 5.178-3.188-2.359-6.824-4.121-10.771-5.178-5.337-1.428-10.818 1.736-12.247 7.071-1.428 5.335 1.738 10.818 7.073 12.247z" fill="#000000" data-original="#000000" style="" class=""/><path d="m49.786 64.682c3.096.829 5.683 2.815 7.286 5.592 1.787 3.094 5.088 4.999 8.661 4.999 3.572 0 6.873-1.906 8.659-5 1.603-2.776 4.19-4.762 7.285-5.591 5.335-1.429 8.502-6.911 7.072-12.246-1.429-5.334-6.906-8.505-12.246-7.072-3.946 1.057-7.584 2.818-10.771 5.178-3.188-2.359-6.825-4.121-10.771-5.178-5.338-1.433-10.818 1.736-12.247 7.071s1.737 10.818 7.072 12.247z" fill="#000000" data-original="#000000" style="" class=""/><path d="m162.389 406.454h-.008c-5.522 0-9.996 4.478-9.996 10s4.481 10 10.004 10 10-4.478 10-10-4.478-10-10-10z" fill="#000000" data-original="#000000" style="" class=""/></g></g></g></svg>
