<?xml version="1.0"?>
<svg xmlns="http://www.w3.org/2000/svg" xmlns:xlink="http://www.w3.org/1999/xlink" xmlns:svgjs="http://svgjs.com/svgjs" version="1.1" width="512" height="512" x="0" y="0" viewBox="0 0 256 256" style="enable-background:new 0 0 512 512" xml:space="preserve" class=""><g><path xmlns="http://www.w3.org/2000/svg" d="m13.362 108.965c-2.962 2.485-3.348 6.9-.863 9.862l5.67 6.757c2.485 2.962 6.9 3.348 9.862.863l97.397-81.726c1.487-1.248 3.655-1.248 5.142 0l97.397 81.726c2.962 2.485 7.377 2.099 9.862-.863l5.67-6.757c2.485-2.962 2.099-7.377-.863-9.862l-109.477-91.863c-2.974-2.495-7.31-2.496-10.284-.001z" fill="#ffffff" data-original="#f9a7a7" style="" class=""/><g xmlns="http://www.w3.org/2000/svg" fill="#4671c6"><path d="m55.002 240.77h-7.333c-2.761 0-5-2.239-5-5v-99.824c0-2.761 2.239-5 5-5h7.333c2.761 0 5 2.239 5 5v99.824c0 2.761-2.239 5-5 5z" fill="#ffffff" data-original="#4671c6" style="" class=""/><path d="m208.331 240.77h-7.333c-2.761 0-5-2.239-5-5v-79.25c0-2.761 2.239-5 5-5h7.333c2.761 0 5 2.239 5 5v79.25c0 2.761-2.238 5-5 5z" fill="#ffffff" data-original="#4671c6" style="" class=""/><path d="m119.333 140.34h17.333v135.996h-17.333z" transform="matrix(0 1 -1 0 336.338 80.338)" fill="#ffffff" data-original="#4671c6" style="" class=""/><circle cx="128" cy="113.358" r="41" fill="#ffffff" data-original="#4671c6" style="" class=""/></g><circle xmlns="http://www.w3.org/2000/svg" cx="128" cy="113.358" fill="#ffffff" r="29" data-original="#a4c9ff" style="" class=""/><path xmlns="http://www.w3.org/2000/svg" d="m124.008 78.958c-1.269 0-2.298 1.029-2.298 2.298v10.961h-2.298v-10.961c0-1.269-1.029-2.298-2.298-2.298s-2.298 1.029-2.298 2.298v10.961h-2.298v-10.961c0-1.269-1.029-2.298-2.298-2.298s-2.298 1.029-2.298 2.298v10.961 3.536c0 3.801 2.307 7.062 5.597 8.462v40.369c0 1.104.895 2 2 2h3.192c1.105 0 2-.896 2-2v-40.369c3.29-1.4 5.597-4.661 5.597-8.462v-3.536-10.961c-.002-1.27-1.031-2.298-2.3-2.298z" fill="#000000" data-original="#e0ebfc" style="" class=""/><path xmlns="http://www.w3.org/2000/svg" d="m145.13 88.488c-1.291-3.24-2.986-6.305-5.044-9.121-.567-.776-1.795-.375-1.795.586v18.333 18.38 27.917c0 1.104.895 2 2 2h3.192c1.105 0 2-.896 2-2v-27.917h1.398c.662 0 1.199-.537 1.199-1.199v-11.611c-.001-5.264-1.002-10.479-2.95-15.368z" fill="#000000" data-original="#e0ebfc" style="" class=""/><path xmlns="http://www.w3.org/2000/svg" d="m232.46 130.081c-2.042 0-4.094-.689-5.777-2.102l-97.397-81.727c-.745-.625-1.827-.625-2.572 0l-97.397 81.727c-3.802 3.191-9.49 2.692-12.68-1.11l-5.67-6.757c-3.189-3.802-2.692-9.49 1.109-12.68l109.514-91.863c3.725-3.124 9.131-3.124 12.854 0l109.479 91.864c3.801 3.189 4.299 8.877 1.109 12.68l-5.67 6.757c-1.777 2.118-4.331 3.211-6.902 3.211zm-104.46-88.298c1.37 0 2.739.468 3.856 1.406l97.398 81.727c2.112 1.773 5.272 1.496 7.044-.617l5.67-6.757c1.772-2.112 1.496-5.272-.616-7.044l-109.478-91.864c-2.234-1.875-5.478-1.875-7.712 0l-109.515 91.864c-2.112 1.772-2.388 4.932-.616 7.044l5.67 6.757c1.772 2.112 4.932 2.39 7.044.617l97.397-81.727c1.119-.938 2.488-1.406 3.858-1.406z" fill="#000000" data-original="#3762cc" style="" class=""/><path xmlns="http://www.w3.org/2000/svg" d="m55.002 242.77h-7.333c-3.86 0-7-3.14-7-7v-99.824c0-3.86 3.14-7 7-7h7.333c3.86 0 7 3.14 7 7v99.824c0 3.86-3.14 7-7 7zm-7.334-109.824c-1.654 0-3 1.346-3 3v99.824c0 1.654 1.346 3 3 3h7.333c1.654 0 3-1.346 3-3v-99.824c0-1.654-1.346-3-3-3z" fill="#000000" data-original="#3762cc" style="" class=""/><path xmlns="http://www.w3.org/2000/svg" d="m208.332 242.77h-7.333c-3.86 0-7-3.14-7-7v-79.25c0-3.86 3.14-7 7-7h7.333c3.86 0 7 3.14 7 7v79.25c0 3.86-3.141 7-7 7zm-7.334-89.25c-1.654 0-3 1.346-3 3v79.25c0 1.654 1.346 3 3 3h7.333c1.654 0 3-1.346 3-3v-79.25c0-1.654-1.346-3-3-3z" fill="#000000" data-original="#3762cc" style="" class=""/><path xmlns="http://www.w3.org/2000/svg" d="m195.998 219.005h-135.996c-1.104 0-2-.896-2-2v-17.333c0-1.104.896-2 2-2h135.996c1.104 0 2 .896 2 2v17.333c0 1.104-.895 2-2 2zm-133.996-4h131.996v-13.333h-131.996z" fill="#000000" data-original="#3762cc" style="" class=""/><path xmlns="http://www.w3.org/2000/svg" d="m60.002 174.083h135.996v25.588h-135.996z" fill="#000000" data-original="#e0ebfc" style="" class=""/><path xmlns="http://www.w3.org/2000/svg" d="m85.502 174.083h-21.5c-2.209 0-4-1.791-4-4v-8.75c0-2.209 1.791-4 4-4h21.5c2.209 0 4 1.791 4 4v8.75c0 2.209-1.791 4-4 4z" fill="#ffffff" data-original="#f9cfcf" style="" class=""/><path xmlns="http://www.w3.org/2000/svg" d="m195.998 201.671h-135.996c-1.104 0-2-.896-2-2v-25.588c0-1.104.896-2 2-2h135.996c1.104 0 2 .896 2 2v25.588c0 1.105-.895 2-2 2zm-133.996-4h131.996v-21.588h-131.996z" fill="#000000" data-original="#3762cc" style="" class=""/><path xmlns="http://www.w3.org/2000/svg" d="m85.502 176.083h-21.5c-3.309 0-6-2.691-6-6v-8.75c0-3.309 2.691-6 6-6h21.5c3.309 0 6 2.691 6 6v8.75c0 3.309-2.691 6-6 6zm-21.5-16.75c-1.103 0-2 .897-2 2v8.75c0 1.103.897 2 2 2h21.5c1.103 0 2-.897 2-2v-8.75c0-1.103-.897-2-2-2z" fill="#000000" data-original="#3762cc" style="" class=""/><path xmlns="http://www.w3.org/2000/svg" d="m191.998 208.338h-98.496c-2.209 0-4-1.791-4-4v-31.005c0-4.418 3.582-8 8-8h90.496c4.418 0 8 3.582 8 8v31.005c0 2.209-1.791 4-4 4z" fill="#ffffff" data-original="#a4c9ff" style="" class=""/><path xmlns="http://www.w3.org/2000/svg" d="m191.998 210.338h-98.496c-3.309 0-6-2.691-6-6v-31.005c0-5.514 4.486-10 10-10h90.496c5.514 0 10 4.486 10 10v31.005c0 3.309-2.691 6-6 6zm-94.496-43.005c-3.309 0-6 2.691-6 6v31.005c0 1.103.897 2 2 2h98.496c1.103 0 2-.897 2-2v-31.005c0-3.309-2.691-6-6-6z" fill="#000000" data-original="#3762cc" style="" class=""/><path xmlns="http://www.w3.org/2000/svg" d="m128 156.358c-23.71 0-43-19.29-43-43s19.29-43 43-43 43 19.29 43 43-19.29 43-43 43zm0-82c-21.505 0-39 17.495-39 39s17.495 39 39 39 39-17.495 39-39-17.495-39-39-39z" fill="#000000" data-original="#3762cc" style="" class=""/></g></svg>
