<svg id="Layer_3" enable-background="new 0 0 64 64" height="512" viewBox="0 0 64 64" width="512" xmlns="http://www.w3.org/2000/svg"><g><path d="m61 1v2h-20v2h4v6h-4c-.155 0-.309.036-.447.105l-2.968 1.484c-.635-1.577-1.951-2.809-3.585-3.325v-5.264c0-1.654-1.346-3-3-3s-3 1.346-3 3v5.317c-.046.016-.094.021-.14.038l-3.86 1.43v-6.785c0-1.654-1.346-3-3-3s-3 1.346-3 3v9.007l-13.269 4.915c-2.231.826-3.731 2.981-3.731 5.361 0 3.153 2.564 5.717 5.717 5.717h.505l6.749 2.5-9.239 3.422c-2.232.826-3.732 2.981-3.732 5.361 0 3.153 2.564 5.717 5.717 5.717h.505l6.749 2.5-9.239 3.422c-2.232.826-3.732 2.981-3.732 5.361 0 3.153 2.564 5.717 5.717 5.717h2.438c.679 0 1.347-.12 1.985-.355l6.86-2.541v1.896c0 .552.448 1 1 1h4c.552 0 1-.448 1-1v-4.119l4-1.482v5.601c0 .552.448 1 1 1h4c.552 0 1-.448 1-1v-7.822l.269-.099c2.231-.827 3.731-2.982 3.731-5.362 0-2.554-1.684-4.722-4-5.453v-6.087l.269-.099c2.231-.826 3.731-2.981 3.731-5.361 0-2.554-1.684-4.722-4-5.453v-6.087l.269-.099c2.231-.826 3.731-2.981 3.731-5.361 0-.032-.004-.064-.005-.096l3.241-1.621h1.764v50h2v-50h2v50h2v-2h8v2h2v-50h2v50h2v-62zm-30 2c.551 0 1 .449 1 1v5h-2v-5c0-.551.449-1 1-1zm-11 1c0-.551.449-1 1-1s1 .449 1 1v7.526l-2 .741zm-8.42 24.482 6.42-2.378v3.904l-1.151.426zm17.358-2.402c-.366.059-.727.145-1.078.275l-3.86 1.43v-3.533zm-2.559-3.08 1.621-.6v1.2zm-4.379 5.526-2 .741v-3.904l2-.741zm-10.42 16.956 6.42-2.378v3.904l-1.151.426zm17.358-2.402c-.366.059-.727.145-1.078.275l-3.86 1.43v-3.533zm-2.559-3.08 1.621-.6v1.2zm-4.379 5.526-2 .741v-3.904l2-.741zm0 15.474h-2v-1.637l2-.741zm10 0h-2v-5.341l2-.741zm4-12.283c0 1.548-.975 2.948-2.426 3.485l-23.128 8.566c-.415.154-.85.232-1.291.232h-2.438c-2.05 0-3.717-1.667-3.717-3.717 0-1.548.975-2.948 2.426-3.485l23.128-8.566c.415-.154.85-.232 1.291-.232h2.438c2.05 0 3.717 1.667 3.717 3.717zm-4-6.635-2-.741v-2.682l2-.741zm4-10.365c0 1.548-.975 2.948-2.426 3.485l-23.128 8.566c-.415.154-.85.232-1.291.232h-2.438c-2.05 0-3.717-1.667-3.717-3.717 0-1.548.975-2.948 2.426-3.485l23.128-8.566c.415-.154.85-.232 1.291-.232h2.438c2.05 0 3.717 1.667 3.717 3.717zm-4-6.635-2-.741v-2.682l2-.741zm1.574-6.88-23.128 8.566c-.415.154-.85.232-1.291.232h-2.438c-2.05 0-3.717-1.667-3.717-3.717 0-1.548.975-2.948 2.426-3.485l23.128-8.566c.415-.154.85-.232 1.291-.232h2.438c2.05 0 3.717 1.667 3.717 3.717 0 1.548-.975 2.948-2.426 3.485zm17.426-7.202v-6h2v6zm4-6h2v6h-2zm-8 0h2v6h-2zm2 44h8v4h-8zm0-2v-4h8v4zm0-6v-4h8v4zm0-6v-4h8v4zm0-6v-4h8v4zm0-6v-4h8v4zm0 36v-4h8v4zm8-42h-8v-4h8zm2-6v-6h2v6z"/><path d="m27.932 46.375h2.136v2h-2.136z" transform="matrix(.936 -.351 .351 .936 -14.784 13.194)"/><path d="m23.932 47.875h2.136v2h-2.136z" transform="matrix(.936 -.351 .351 .936 -15.565 11.885)"/><path d="m5.456 52h17.088v2h-17.088z" transform="matrix(.936 -.351 .351 .936 -17.713 8.287)"/><path d="m27.932 29.375h2.136v2h-2.136z" transform="matrix(.936 -.351 .351 .936 -8.817 12.112)"/><path d="m23.932 30.875h2.136v2h-2.136z" transform="matrix(.936 -.351 .351 .936 -9.598 10.804)"/><path d="m5.456 35h17.088v2h-17.088z" transform="matrix(.936 -.351 .351 .936 -11.746 7.205)"/><path d="m27.932 12.375h2.136v2h-2.136z" transform="matrix(.936 -.351 .351 .936 -2.85 11.031)"/><path d="m23.932 13.875h2.136v2h-2.136z" transform="matrix(.936 -.351 .351 .936 -3.631 9.722)"/><path d="m5.456 18h17.088v2h-17.088z" transform="matrix(.936 -.351 .351 .936 -5.779 6.123)"/></g></svg>