<svg id="Capa_1" enable-background="new 0 0 512.001 512.001" height="512" viewBox="0 0 512.001 512.001" width="512" xmlns="http://www.w3.org/2000/svg"><g><g><path d="m482.232 428.821h-113.356c12.103-12.621 22.362-27.019 30.211-42.562 2.638-5.224 4.983-10.54 7.068-15.931 10.762 6.45 23.106 9.921 35.895 9.921 38.57 0 69.95-31.38 69.95-69.95s-31.38-69.95-69.95-69.95c-11.519 0-22.76 2.843-32.781 8.162-4.594-19.733-9.39-35.402-9.773-36.647-1.293-4.193-5.168-7.055-9.557-7.055h-184.012v-2.176c0-5.522-4.478-10-10-10s-10 4.478-10 10v2.176h-91.616c-4.388 0-8.263 2.86-9.556 7.054-.751 2.433-18.375 59.995-18.375 95.286 0 27.824 6.316 54.44 18.773 79.11 7.849 15.543 18.109 29.941 30.211 42.562h-105.363c-4.47 0-8.396 2.966-9.619 7.266-1.222 4.3.558 8.888 4.359 11.239l24.63 15.233c36.368 22.494 78.195 34.384 120.96 34.384h48.33c5.522 0 10-4.478 10-10s-4.478-10-10-10h-48.33c-36.917 0-73.069-9.705-104.967-28.122h401.505c-31.898 18.417-68.051 28.122-104.967 28.122h-55.31c-5.522 0-10 4.478-10 10s4.478 10 10 10h55.31c42.764 0 84.59-11.89 120.959-34.384l24.631-15.233c3.802-2.352 5.581-6.939 4.359-11.239-1.222-4.301-5.149-7.266-9.619-7.266zm-40.181-168.473c27.543 0 49.95 22.407 49.95 49.95s-22.407 49.95-49.95 49.95c-10.737 0-21.044-3.41-29.579-9.698 6.905-27.161 6.216-54.022 1.155-81.327 8.308-5.755 18.213-8.875 28.424-8.875zm-340.251-35.54h84.127v40.502l-33.03 27.255c-2.303 1.899-3.636 4.729-3.636 7.713v69.971c0 5.522 4.478 10 10 10h71.257c5.522 0 10-4.478 10-10v-69.971c0-2.885-1.245-5.628-3.416-7.527l-31.175-27.267v-40.675h176.525c5.596 19.643 10.452 39.597 13.484 59.809 3.463 23.091.611 44.666-4.55 67.25-8.925 30.021-26.817 56.792-52.04 76.951h-194.45c-37.231-29.754-58.516-73.908-58.516-121.67.001-25.48 10.791-66.092 15.42-82.341zm93.938 58.335 24.779 21.674v55.432h-51.257v-55.257z"/><path d="m274.89 108.632c.07.063 7.12 6.637 11.295 16.785 5.39 13.103 3.358 26.033-6.04 38.431-3.336 4.401-2.473 10.674 1.929 14.011 4.345 3.293 10.72 2.411 14.011-1.929 17.415-22.977 14.287-44.289 8.596-58.122-5.459-13.271-14.342-22.09-16.068-23.726-9.912-10.188-14.802-20.745-14.535-31.384.432-17.18 14.018-30.015 14.283-30.263 4.062-3.715 4.357-10.018.656-14.098-3.711-4.089-10.035-4.397-14.126-.687-.817.742-20.029 18.462-20.8 44.292-.488 16.388 6.365 31.956 20.371 46.274.138.145.282.282.428.416z"/><path d="m208.433 111.226c2.521 0 5.046-.948 6.991-2.852 3.948-3.861 4.019-10.192.156-14.141-10.01-10.234-14.949-20.844-14.682-31.535.431-17.156 13.979-29.979 14.282-30.262 4.062-3.715 4.359-10.019.657-14.099-3.711-4.089-10.035-4.397-14.126-.687-.817.742-20.029 18.462-20.8 44.292-.488 16.388 6.365 31.956 20.371 46.274 1.961 2.005 4.555 3.01 7.151 3.01z"/><path d="m251.35 482.07c-2.069-5.042-8.026-7.484-13.05-5.409-5.044 2.083-7.498 8.022-5.41 13.06 2.085 5.032 8.016 7.489 13.05 5.41 5.029-2.078 7.502-8.037 5.41-13.061z"/></g></g></svg>