<?xml version="1.0" encoding="iso-8859-1"?>
<!-- Generator: Adobe Illustrator 19.0.0, SVG Export Plug-In . SVG Version: 6.00 Build 0)  -->
<svg version="1.1" id="Capa_1" xmlns="http://www.w3.org/2000/svg" xmlns:xlink="http://www.w3.org/1999/xlink" x="0px" y="0px"
	 viewBox="0 0 512 512" style="enable-background:new 0 0 512 512;" xml:space="preserve">
<g>
	<g>
		<path d="M264.13,166.93c-1.86-1.86-4.44-2.93-7.07-2.93c-2.64,0-5.21,1.069-7.07,2.93c-1.86,1.86-2.93,4.44-2.93,7.07
			s1.07,5.21,2.93,7.069c1.86,1.86,4.44,2.931,7.07,2.931s5.21-1.07,7.07-2.931c1.86-1.859,2.93-4.439,2.93-7.069
			S265.99,168.79,264.13,166.93z"/>
	</g>
</g>
<g>
	<g>
		<path d="M438.3,368.85c-1.86-1.859-4.44-2.92-7.07-2.92s-5.21,1.061-7.07,2.92c-1.86,1.86-2.93,4.44-2.93,7.07
			c0,2.64,1.07,5.21,2.93,7.07c1.86,1.869,4.44,2.93,7.07,2.93s5.21-1.061,7.07-2.93c1.86-1.86,2.93-4.431,2.93-7.07
			C441.23,373.29,440.16,370.71,438.3,368.85z"/>
	</g>
</g>
<g>
	<g>
		<path d="M493.154,492H441.23v-83.153c0-5.522-4.477-10-10-10s-10,4.478-10,10V492h-51.924c-5.523,0-10,4.478-10,10
			c0,5.522,4.477,10,10,10h123.849c5.523,0,10-4.478,10-10C503.155,496.478,498.677,492,493.154,492z"/>
	</g>
</g>
<g>
	<g>
		<path d="M502,216.5c-5.523,0-10,4.478-10,10V270H390c-22.056,0-40,17.944-40,40c0,22.056,17.944,40,40,40h82
			c22.056,0,40-17.944,40-40v-0.092V280v-53.5C512,220.978,507.523,216.5,502,216.5z M492,309.908V310c0,11.028-8.972,20-20,20h-82
			c-11.028,0-20-8.972-20-20s8.972-20,20-20h102V309.908z"/>
	</g>
</g>
<g>
	<g>
		<path d="M142.695,492H90.771V350H122c22.056,0,40-17.944,40-40c0-22.056-17.944-40-40-40H20v-43.5c0-5.522-4.477-10-10-10
			s-10,4.478-10,10V280v29.908V310c0,22.056,17.944,40,40,40h30.771v142H18.846c-5.523,0-10,4.478-10,10c0,5.522,4.477,10,10,10
			h123.849c5.523,0,10-4.478,10-10C152.695,496.478,148.218,492,142.695,492z M40,330c-11.028,0-20-8.972-20-20v-0.092V290h102
			c11.028,0,20,8.972,20,20s-8.972,20-20,20H40z"/>
	</g>
</g>
<g>
	<g>
		<path d="M420.035,164h-61.352v-22.492c0.774-0.132,1.549-0.264,2.321-0.426c21.917-4.603,38.765-21.796,42.922-43.802
			c2.21-11.698,0.526-24.021-4.742-34.696c0,0,0,0,0-0.001c-7.658-15.519-9.443-33.287-5.026-50.032
			c0.791-3,0.146-6.196-1.748-8.654C390.517,1.439,387.591,0,384.489,0h-71.611c-3.102,0-6.028,1.439-7.921,3.896
			c-1.894,2.458-2.539,5.654-1.748,8.653c4.417,16.746,2.631,34.515-5.027,50.034c-5.268,10.676-6.952,22.998-4.742,34.696
			c4.158,22.006,21.006,39.199,42.922,43.802c0.772,0.162,1.547,0.294,2.321,0.426V164h-35.12c-5.523,0-10,4.478-10,10
			c0,5.522,4.477,10,10,10h116.471c9.925,0,18,8.075,18,18s-8.075,18-18,18H91.965c-9.925,0-18-8.075-18-18s8.075-18,18-18H217
			c5.523,0,10-4.478,10-10c0-5.522-4.477-10-10-10h-43.955v-19.741l29.594-36.213c6.115,3.019,12.891,4.636,19.779,4.636
			c24.615,0,44.641-20.025,44.641-44.641c0-24.616-20.026-44.641-44.641-44.641c-21.176,0-38.943,14.826-43.497,34.641h-22.242
			l-16.912-32.379c-2.557-4.896-8.598-6.791-13.494-4.233c-4.895,2.557-6.791,8.598-4.234,13.493l12.076,23.119h-30.359
			c-3.864,0-7.383,2.227-9.037,5.719s-1.149,7.625,1.299,10.615l57.033,69.673c0,0.036-0.005,0.07-0.005,0.106V164h-61.08
			c-20.953,0-38,17.047-38,38s17.046,38,38,38H226v186.278c0,9.81-7.98,17.79-17.79,17.79c-20.837,0-37.79,16.952-37.79,37.79V502
			c0,5.522,4.477,10,10,10s10-4.478,10-10v-20.142c0-9.81,7.98-17.79,17.79-17.79c20.837,0,37.79-16.952,37.79-37.79V240h20v186.278
			c0,20.838,16.953,37.79,37.79,37.79c9.809,0,17.79,7.98,17.79,17.79V502c0,5.522,4.477,10,10,10s10-4.478,10-10v-20.142
			c0-20.837-16.953-37.79-37.79-37.79c-9.809,0-17.79-7.98-17.79-17.79V240h134.035c20.953,0,38-17.047,38-38
			S440.989,164,420.035,164z M324.938,20h47.49c-1.909,16.019,0.449,32.303,6.877,47.194H318.06
			C324.489,52.303,326.846,36.018,324.938,20z M348.74,122.364c-0.019,0-0.038-0.003-0.057-0.003c-0.019,0-0.038,0.003-0.057,0.003
			c-2.724-0.004-5.448-0.288-8.153-0.855c-13.981-2.936-24.728-13.904-27.381-27.942c-0.397-2.104-0.59-4.239-0.598-6.373h72.377
			c-0.007,2.134-0.2,4.27-0.598,6.373c-2.652,14.038-13.399,25.006-27.38,27.942C354.188,122.076,351.464,122.36,348.74,122.364z
			 M222.418,43.4c13.587,0,24.641,11.054,24.641,24.641c0,13.587-11.054,24.641-24.641,24.641c-2.239,0-4.423-0.291-6.518-0.861
			l14.261-17.451c0.306-0.374,0.581-0.766,0.825-1.172c1.711-2.843,1.916-6.388,0.467-9.442c-1.655-3.49-5.173-5.715-9.036-5.715
			h-22.52C203.741,49.423,212.39,43.4,222.418,43.4z M187.777,78.041h13.554l-20.868,25.535l-13.338-25.535H187.777z
			 M124.864,78.041h19.697l22.136,42.38l-3.568,4.365L124.864,78.041z"/>
	</g>
</g>
<g>
</g>
<g>
</g>
<g>
</g>
<g>
</g>
<g>
</g>
<g>
</g>
<g>
</g>
<g>
</g>
<g>
</g>
<g>
</g>
<g>
</g>
<g>
</g>
<g>
</g>
<g>
</g>
<g>
</g>
</svg>
