<svg id="Capa_1" enable-background="new 0 0 512 512" height="512" viewBox="0 0 512 512" width="512" xmlns="http://www.w3.org/2000/svg"><g><path d="m492.35 165.296h-29.98c-1.657-2.951-3.485-5.791-5.483-8.502-.266-.438-.575-.846-.923-1.219-14.939-19.495-38.442-32.099-64.844-32.099h-31.09c-4.142 0-7.5 3.358-7.5 7.5s3.358 7.5 7.5 7.5h31.09c15.771 0 30.271 5.516 41.699 14.705h-103.633c-3.771 0-7.284 2.03-9.166 5.298-1.883 3.269-1.876 7.326.017 10.589l57.184 98.525c3.554 6.122 9.335 10.543 15.966 12.498.366.13.743.235 1.132.308 2.125.529 4.323.817 6.56.817h56.911v16.696h-13.042c-9.135 0-16.566 7.432-16.566 16.566v18.992c0 9.135 7.432 16.566 16.566 16.566h13.042v22.049h-40.737l-123.436-212.677c-2.229-3.839-6.372-6.225-10.811-6.225h-242.821c-6.536 0-11.853 5.313-11.853 11.842v54.891h-13.132v-81.441h310.21c4.142 0 7.5-3.358 7.5-7.5s-3.358-7.5-7.5-7.5h-169.646l-17.881-23.24c-4.359-5.667-11.231-9.051-18.381-9.051h-63.778c-10.818 0-19.62 8.802-19.62 19.62v12.671h-23.284c-6.959 0-12.62 5.666-12.62 12.63v238.36c0 6.959 5.661 12.62 12.62 12.62h34.535c6.867 19.617 25.553 33.729 47.484 33.729s40.618-14.113 47.484-33.729h29.816c4.142 0 7.5-3.358 7.5-7.5s-3.358-7.5-7.5-7.5h-27.038c.016-.524.04-1.045.04-1.573 0-27.737-22.566-50.303-50.303-50.303s-50.302 22.566-50.302 50.303c0 .527.024 1.049.04 1.573h-29.376v-137.168h305.1l79.61 137.169h-38.614c.016-.524.04-1.045.04-1.573 0-27.737-22.566-50.303-50.303-50.303s-50.302 22.566-50.302 50.303c0 .527.024 1.049.04 1.573h-53.63c-4.142 0-7.5 3.358-7.5 7.5s3.358 7.5 7.5 7.5h56.409c6.867 19.617 25.553 33.729 47.484 33.729s40.618-14.113 47.484-33.729c11.905.001 101.475.004 101.851.004 5.221 0 9.711-3.186 11.628-7.716.64-1.51.994-3.168.994-4.908v-169.32c0-8.663-1.368-17.01-3.878-24.85h23.438c2.564 0 4.65 2.086 4.65 4.65v22.45c0 3.312-1.201 6.508-3.389 9.006l-2.83 3.24c-2.725 3.12-2.404 7.857.715 10.583 1.422 1.242 3.18 1.851 4.931 1.851 2.09 0 4.169-.869 5.652-2.566l2.823-3.232c4.577-5.227 7.098-11.932 7.098-18.881v-22.45c-.001-10.836-8.816-19.651-19.651-19.651zm-34.561 169.741h-13.041c-.864 0-1.566-.703-1.566-1.566v-18.992c0-.864.703-1.566 1.566-1.566h13.041zm-406.885-224.232c0-2.547 2.073-4.62 4.62-4.62h63.777c2.525 0 4.952 1.195 6.492 3.197l10.844 14.094h-85.733zm43.735 224.405c19.466 0 35.303 15.837 35.303 35.303s-15.837 35.302-35.303 35.302-35.302-15.836-35.302-35.302 15.836-35.303 35.302-35.303zm72.197-167.026h62.058v51.733h-62.058zm-15 51.733h-62.059v-51.733h62.059zm-108.703-51.733h31.645v51.733h-31.645zm200.761 51.733v-51.733h37.473l30.026 51.733zm66.939 185.898c-19.466 0-35.302-15.836-35.302-35.302s15.836-35.303 35.302-35.303 35.303 15.837 35.303 35.303-15.838 35.302-35.303 35.302zm26.032-237.634h51.333v88.444zm66.333 98.035v-98.036h43.373c7.081 10.587 11.219 23.3 11.219 36.965v61.07h-54.592z"/><path d="m94.639 393.375c12.606 0 22.862-10.256 22.862-22.862s-10.256-22.862-22.862-22.862-22.862 10.256-22.862 22.862 10.256 22.862 22.862 22.862zm0-30.724c4.335 0 7.862 3.527 7.862 7.862s-3.527 7.862-7.862 7.862-7.862-3.527-7.862-7.862 3.527-7.862 7.862-7.862z"/><path d="m310.833 347.651c-12.606 0-22.862 10.256-22.862 22.862s10.256 22.862 22.862 22.862 22.862-10.256 22.862-22.862-10.256-22.862-22.862-22.862zm0 30.724c-4.335 0-7.862-3.527-7.862-7.862s3.527-7.862 7.862-7.862 7.862 3.527 7.862 7.862-3.527 7.862-7.862 7.862z"/></g></svg>