<?xml version="1.0"?>
<svg xmlns="http://www.w3.org/2000/svg" id="Outline" viewBox="0 0 512 512" width="512" height="512"><path d="M272,239.865V24a8,8,0,0,0-8-8c-16.054,0-29.774,11.161-40.78,33.172-7.954,15.908-14.707,37.875-20.071,65.292-9.012,46.059-11.059,91.286-11.142,93.188a8,8,0,0,0,6.053,8.109L224,222.246v17.619l-7.987,231.356a23.631,23.631,0,0,0,6.714,17.34A24.32,24.32,0,0,0,240.357,496h15.286a24.32,24.32,0,0,0,17.63-7.439,23.636,23.636,0,0,0,6.713-17.353Zm-63.639-38.021c.9-14.184,3.664-49.42,10.49-84.308,9.19-46.971,22.18-75.971,37.149-83.546V232H240V216a8,8,0,0,0-6.06-7.761Zm53.413,275.591A8.445,8.445,0,0,1,255.643,480H240.357a8.445,8.445,0,0,1-6.131-2.565A7.756,7.756,0,0,1,232,471.761L239.729,248h16.542L264,471.748A7.765,7.765,0,0,1,261.774,477.435Z"/><path d="M430.152,42.844C418.034,25.533,401.644,16,384,16s-34.034,9.533-46.152,26.844C326.339,59.286,320,81.005,320,104s6.339,44.714,17.848,61.156c6.34,9.057,13.856,15.961,22.1,20.508l-7.938,285.557a23.631,23.631,0,0,0,6.714,17.34A24.32,24.32,0,0,0,376.357,496h15.286a24.32,24.32,0,0,0,17.63-7.439,23.606,23.606,0,0,0,6.715-17.3l-7.939-285.6c8.247-4.547,15.763-11.451,22.1-20.508C441.661,148.714,448,127,448,104S441.661,59.286,430.152,42.844ZM397.774,477.435A8.445,8.445,0,0,1,391.643,480H376.357a8.445,8.445,0,0,1-6.131-2.565,7.785,7.785,0,0,1-2.22-5.728l7.8-280.432a46.724,46.724,0,0,0,16.4,0L400,471.748A7.765,7.765,0,0,1,397.774,477.435Zm19.27-321.455C408.007,168.891,396.272,176,384,176s-24.007-7.109-33.044-20.02C341.312,142.2,336,123.742,336,104s5.312-38.2,14.956-51.98C359.993,39.109,371.728,32,384,32s24.007,7.109,33.044,20.02C426.688,65.8,432,84.258,432,104S426.688,142.2,417.044,155.98Z"/><path d="M136,16a8,8,0,0,0-8,8v80H112V24a8,8,0,0,0-16,0v80H80V24a8,8,0,0,0-16,0V136.446a40.2,40.2,0,0,0,4.223,17.889l11.726,23.451L72.013,471.221a23.631,23.631,0,0,0,6.714,17.34A24.32,24.32,0,0,0,96.357,496h15.286a24.32,24.32,0,0,0,17.63-7.439,23.6,23.6,0,0,0,6.715-17.292l-7.937-293.483,11.726-23.451A40.2,40.2,0,0,0,144,136.446V24A8,8,0,0,0,136,16ZM117.774,477.435A8.445,8.445,0,0,1,111.643,480H96.357a8.445,8.445,0,0,1-6.131-2.565,7.79,7.79,0,0,1-2.22-5.735L95.787,184h16.426L120,471.748A7.765,7.765,0,0,1,117.774,477.435ZM128,136.446a24.117,24.117,0,0,1-2.534,10.733L115.056,168H92.944l-10.41-20.821A24.117,24.117,0,0,1,80,136.446V120h48Z"/></svg>
