<svg id="Capa_1" enable-background="new 0 0 512.004 512.004" height="512" viewBox="0 0 512.004 512.004" width="512" xmlns="http://www.w3.org/2000/svg"><g id="XMLID_1131_"><g id="XMLID_465_"><path id="XMLID_468_" d="m502.002 492.002h-4v-181.853c1.293.567 2.648.856 3.991.856 3.547 0 6.982-1.892 8.795-5.227 2.638-4.853.842-10.924-4.011-13.562l-128.775-69.99v-19.224c0-2.652-1.054-5.196-2.929-7.071l-109.071-109.071v-35.858h12c5.522 0 10-4.477 10-10s-4.478-10-10-10h-12v-21c0-5.523-4.478-10-10-10s-10 4.477-10 10v21h-11.746c-5.522 0-10 4.477-10 10s4.478 10 10 10h11.746v35.858l-109.071 109.071c-1.875 1.875-2.929 4.419-2.929 7.071v19.224l-128.775 69.99c-4.853 2.637-6.648 8.709-4.011 13.562 1.813 3.335 5.248 5.227 8.795 5.227 1.343 0 2.698-.289 3.991-.855v181.853h-4c-5.522 0-10 4.477-10 10s4.478 10 10 10h492c5.522 0 10-4.477 10-10s-4.477-10.001-10-10.001zm-358-142.68c-5.522 0-10 4.477-10 10v132.68h-100v-192.662l100-54.35v24.333c0 5.523 4.478 10 10 10s10-4.477 10-10v-62.178l102-102 102 102v284.858h-36v-83.145c0-36.393-29.607-66-66-66s-66 29.607-66 66v83.145h-36v-132.68c0-5.524-4.477-10.001-10-10.001zm66 59.536c0-21.93 15.43-40.313 36-44.892v128.037h-36zm56 83.144v-128.037c20.57 4.58 36 22.962 36 44.892v83.145zm112 0v-247.012l100 54.35v192.662z"/><path id="XMLID_474_" d="m256.002 292.489c25.364 0 46-20.636 46-46s-20.636-46-46-46-46 20.636-46 46 20.636 46 46 46zm0-72c14.337 0 26 11.664 26 26s-11.663 26-26 26-26-11.664-26-26c0-14.337 11.663-26 26-26z"/><path id="XMLID_479_" d="m428.002 350.252c-16.542 0-30 13.458-30 30v58c0 5.523 4.478 10 10 10h40c5.522 0 10-4.477 10-10v-58c0-16.542-13.458-30-30-30zm10 78h-20v-48c0-5.514 4.486-10 10-10s10 4.486 10 10z"/><path id="XMLID_1287_" d="m84.002 350.252c-16.542 0-30 13.458-30 30v58c0 5.523 4.478 10 10 10h40c5.522 0 10-4.477 10-10v-58c0-16.542-13.458-30-30-30zm10 78h-20v-48c0-5.514 4.486-10 10-10s10 4.486 10 10z"/><path id="XMLID_1288_" d="m151.071 307.252c-1.859-1.86-4.439-2.93-7.069-2.93s-5.21 1.07-7.07 2.93-2.93 4.44-2.93 7.07 1.069 5.21 2.93 7.07c1.86 1.86 4.44 2.93 7.07 2.93s5.21-1.07 7.069-2.93c1.86-1.86 2.931-4.44 2.931-7.07s-1.07-5.21-2.931-7.07z"/></g></g></svg>