<svg id="Layer_5" enable-background="new 0 0 64 64" height="512" viewBox="0 0 64 64" width="512" xmlns="http://www.w3.org/2000/svg"><path d="m28.147 35.588h2.001v2h-2.001z" transform="matrix(.918 -.397 .397 .918 -12.138 14.593)"/><path d="m29.699 39.265h2.001v1.809h-2.001z" transform="matrix(.918 -.398 .398 .918 -13.445 15.526)"/><path d="m26.556 31.918h2.001v2h-2.001z" transform="matrix(.918 -.397 .397 .918 -10.811 13.659)"/><path d="m41 17v2h4.762l3.326 7.419 1.824-.818-3.855-8.601z"/><path d="m8 15c3.859 0 7-3.141 7-7s-3.141-7-7-7h-1v1.756l.251.283c.483.547.749 1.243.749 1.961 0 1.654-1.346 3-3 3-.718 0-1.414-.266-1.961-.749l-.283-.251h-1.756v1c0 3.859 3.141 7 7 7zm-3-5c2.757 0 5-2.243 5-5 0-.586-.104-1.162-.305-1.704 1.925.696 3.305 2.542 3.305 4.704 0 2.757-2.243 5-5 5-2.162 0-4.008-1.38-4.704-3.305.542.201 1.118.305 1.704.305z"/><path d="m60.001 21.107.002-.107c0-.797-.192-1.562-.536-2.245 2.038-.631 3.533-2.512 3.533-4.755 0-1.241-.466-2.422-1.298-3.336.198-.54.298-1.098.298-1.664 0-2.757-2.243-5-5-5-.569 0-1.124.107-1.653.292-.992-1.95-3.013-3.292-5.347-3.292-1.333 0-2.624.456-3.672 1.277-.908-.813-2.092-1.277-3.328-1.277-2.113 0-3.924 1.32-4.65 3.209-.432-.123-.879-.209-1.35-.209-2.757 0-5 2.243-5 5 0 .572.105 1.138.295 1.673-.584.649-1.013 1.44-1.194 2.327h-16.748l-13.353 29.786v2.214h34.703c-.416.894-.703 1.89-.703 3.049 0 1.545.507 2.955 1.387 4.15l-9.094 9.094 1.414 1.414 9.057-9.057c.501.411 1.061.776 1.671 1.089l-4.278 6.724 1.688 1.074 4.486-7.05c.824.242 1.701.409 2.627.476l.042 7.043 2-.012-.043-7.024c1.118-.06 2.145-.221 3.075-.477l5.159 7.095 1.617-1.176-4.84-6.656c.53-.269 1.011-.581 1.442-.932l8.883 8.883 1.414-1.414-8.945-8.945c.804-1.184 1.238-2.625 1.238-4.299 0-1.038-.233-2.055-.59-3.049h8.59v-2.214l-7.551-16.845c2.526-.291 4.522-2.349 4.552-4.834zm-24.001-10.107v-2c-.692 0-1.351.142-1.951.397-.018-.132-.049-.261-.049-.397 0-1.654 1.346-3 3-3s3 1.346 3 3h2c0-1.567-.739-2.95-1.871-3.868.373-1.246 1.525-2.132 2.871-2.132.97 0 1.886.479 2.45 1.279l.729 1.033.837-.947c.779-.88 1.838-1.365 2.984-1.365 2.206 0 4 1.794 4 4s-1.794 4-4 4v2c3.309 0 6-2.691 6-6 0-.272-.024-.537-.06-.799.337-.128.693-.201 1.06-.201 1.654 0 3 1.346 3 3 0 .482-.128.961-.379 1.422l-.399.732.649.524c.718.58 1.129 1.426 1.129 2.322 0 1.654-1.346 3-3 3v.003c-.393-.296-.832-.539-1.311-.711l-.674 1.883c1.188.426 1.987 1.562 1.986 2.87-.02 1.63-1.434 2.955-3.152 2.955h-.27l-4.931-11h-16.464c.414-1.161 1.514-2 2.816-2zm-12.549 29.578c-4.805-5.766-7.451-13.074-7.451-20.578v-1.176l10.476 24.176h-1.008zm-.586 2.422h-15.73l.951-1.141c3.334-4.001 5.681-8.703 6.914-13.704 1.233 5 3.58 9.702 6.914 13.703zm-8.865-24.325v1.325c0 7.504-2.646 14.812-7.451 20.579l-2.017 2.421h-1.436zm23 29.374c0-1.816.982-3.158 2.021-4.579.686-.935 1.387-1.893 1.741-2.978.622.365 1.238.893 1.238 1.508v1h2v-1c0-.721-.253-1.332-.626-1.841.796-1.911 2.691-3.133 3.893-3.744.431 1.236 1.334 2.579 2.335 4.068 1.592 2.369 3.398 5.053 3.398 7.566 0 2.852-1.532 4.363-3.409 5.15.259-.583.409-1.223.409-1.9 0-1.063-.366-2.107-1.03-2.938l-3.97-4.962-3.969 4.962c-.665.83-1.031 1.874-1.031 2.938 0 .579.119 1.127.312 1.64-2.03-1.057-3.312-2.816-3.312-4.89zm7.951 5.951c-.13 0-.256-.009-.384-.014-1.426-.071-2.567-1.244-2.567-2.687 0-.611.21-1.211.593-1.688l2.407-3.01 2.408 3.011c.382.476.592 1.076.592 1.687 0 1.465-1.175 2.656-2.631 2.694-.142.003-.284.007-.418.007zm8.563-11c-.673-1.267-1.481-2.485-2.253-3.633-1.112-1.653-2.261-3.362-2.261-4.367v-1.398l-1.323.452c-.187.063-4.128 1.444-5.868 4.74-.761-.456-1.442-.678-1.507-.698l-1.302-.413v1.366c0 1.065-.737 2.073-1.592 3.24-.169.231-.341.469-.512.711h-8.239l-12.133-28h31.829l12.552 28z"/><path d="m37 17h2v2h-2z"/><path d="m33 17h2v2h-2z"/></svg>