<?xml version="1.0" encoding="iso-8859-1"?>
<!-- Generator: Adobe Illustrator 19.0.0, SVG Export Plug-In . SVG Version: 6.00 Build 0)  -->
<svg version="1.1" id="Layer_1" xmlns="http://www.w3.org/2000/svg" xmlns:xlink="http://www.w3.org/1999/xlink" x="0px" y="0px"
	 viewBox="0 0 511.992 511.992" style="enable-background:new 0 0 511.992 511.992;" xml:space="preserve">
<g>
	<g>
		<g>
			<path d="M496.365,228.95L270.997,6.164c-8.311-8.215-21.684-8.216-29.995-0.001L15.701,228.862
				c-20.923,20.922-20.923,54.706-0.075,75.518c1.808,1.808,3.72,3.449,5.707,4.943v181.333c0,11.782,9.551,21.333,21.333,21.333
				h426.667c11.782,0,21.333-9.551,21.333-21.333V309.309c1.989-1.497,3.902-3.142,5.711-4.955
				C517.199,283.568,517.199,249.784,496.365,228.95z M45.751,259.152L255.999,51.333l210.283,207.873
				c4.081,4.081,4.081,10.831-0.074,14.979c-0.73,0.731-1.542,1.327-2.402,1.802c-0.528,0.143-1.056,0.3-1.582,0.486
				c-3.492,1.234-7.098,0.752-9.841-1.209c-0.086-0.063-0.172-0.123-0.257-0.189c-0.279-0.214-0.545-0.448-0.804-0.694
				c-0.067-0.064-0.139-0.119-0.204-0.185L271.085,94.166c-8.331-8.331-21.838-8.331-30.169-0.001L60.862,274.197
				c-0.066,0.067-0.139,0.123-0.207,0.187c-0.257,0.244-0.521,0.477-0.798,0.69c-0.085,0.066-0.172,0.127-0.259,0.191
				c-2.737,1.958-6.342,2.442-9.81,1.214c-0.544-0.193-1.089-0.354-1.634-0.5c-0.848-0.471-1.65-1.059-2.371-1.78
				C41.626,270.047,41.615,263.322,45.751,259.152z M64,469.323V318.911c6.176-1.256,12.168-3.62,17.669-7.081
				c0.075-0.047,0.151-0.094,0.226-0.141c0.443-0.282,0.883-0.568,1.32-0.864c0.338-0.228,0.67-0.464,1.003-0.7
				c0.256-0.182,0.515-0.358,0.768-0.545c0.641-0.472,1.27-0.964,1.893-1.468c0.108-0.088,0.215-0.179,0.323-0.268
				c0.585-0.481,1.16-0.976,1.728-1.486c0.068-0.061,0.137-0.121,0.204-0.183c0.649-0.589,1.291-1.19,1.916-1.816l164.95-164.93
				l164.948,164.948c0.622,0.622,1.261,1.219,1.907,1.804c0.074,0.067,0.149,0.133,0.224,0.2c0.557,0.499,1.123,0.985,1.697,1.457
				c0.119,0.098,0.236,0.198,0.355,0.294c0.617,0.498,1.241,0.986,1.876,1.453c0.267,0.198,0.541,0.383,0.811,0.575
				c0.32,0.226,0.639,0.453,0.963,0.671c0.44,0.299,0.885,0.587,1.332,0.871c0.073,0.046,0.147,0.092,0.221,0.138
				c5.502,3.457,11.493,5.818,17.668,7.072v150.412H64z"/>
			<path d="M319.993,234.663c-11.782,0-21.333,9.551-21.333,21.333v64h-85.333v-64c0-11.782-9.551-21.333-21.333-21.333
				s-21.333,9.551-21.333,21.333v170.667c0,11.782,9.551,21.333,21.333,21.333s21.333-9.551,21.333-21.333v-64h85.333v64
				c0,11.782,9.551,21.333,21.333,21.333s21.333-9.551,21.333-21.333V255.996C341.327,244.214,331.775,234.663,319.993,234.663z"/>
		</g>
	</g>
</g>
<g>
</g>
<g>
</g>
<g>
</g>
<g>
</g>
<g>
</g>
<g>
</g>
<g>
</g>
<g>
</g>
<g>
</g>
<g>
</g>
<g>
</g>
<g>
</g>
<g>
</g>
<g>
</g>
<g>
</g>
</svg>
