<?xml version="1.0" encoding="iso-8859-1"?>
<!-- Generator: Adobe Illustrator 19.0.0, SVG Export Plug-In . SVG Version: 6.00 Build 0)  -->
<svg version="1.1" id="Capa_1" xmlns="http://www.w3.org/2000/svg" xmlns:xlink="http://www.w3.org/1999/xlink" x="0px" y="0px"
	 viewBox="0 0 512.002 512.002" style="enable-background:new 0 0 512.002 512.002;" xml:space="preserve">
<g>
	<g>
		<path d="M212.668,34.287c-1.177-3.62-4.305-6.259-8.073-6.807l-17.63-2.562l-7.884-15.976c-1.685-3.413-5.161-5.574-8.968-5.574
			c-3.806,0-7.282,2.161-8.967,5.574l-7.886,15.976l-17.629,2.562c-3.767,0.548-6.896,3.186-8.073,6.806
			c-1.176,3.62-0.196,7.595,2.53,10.252l12.757,12.436l-3.012,17.559c-0.643,3.752,0.9,7.543,3.979,9.78
			c3.08,2.24,7.163,2.532,10.531,0.762l15.77-8.29l15.769,8.29c1.463,0.768,3.06,1.148,4.652,1.148c2.073,0,4.137-0.644,5.879-1.91
			c3.08-2.237,4.623-6.028,3.979-9.78l-3.012-17.559l12.758-12.436C212.863,41.881,213.844,37.907,212.668,34.287z M179.653,46.322
			c-2.356,2.298-3.432,5.608-2.876,8.852l0.476,2.77l-2.487-1.308c-2.914-1.531-6.395-1.531-9.307,0l-2.488,1.309l0.476-2.771
			c0.556-3.245-0.52-6.554-2.876-8.852l-2.013-1.962l2.781-0.403c3.258-0.474,6.073-2.52,7.529-5.471l1.245-2.521l1.243,2.521
			c1.457,2.951,4.272,4.997,7.53,5.471l2.78,0.403L179.653,46.322z"/>
	</g>
</g>
<g>
	<g>
		<path d="M130.65,93.515c-2.079-3.133-5.742-4.829-9.475-4.404c-1.92,0.221-3.875,0.333-5.813,0.333
			c-27.575,0-50.01-22.434-50.01-50.009c0-8.602,2.218-17.082,6.413-24.523c1.847-3.275,1.7-7.31-0.38-10.442
			c-2.081-3.132-5.744-4.84-9.478-4.402C26.615,4.141,0.001,34.039,0.001,69.612c0,38.603,31.406,70.009,70.009,70.009
			c25.232,0,48.613-13.665,61.019-35.664C132.876,100.682,132.729,96.648,130.65,93.515z M70.01,119.622
			c-27.575,0-50.009-22.434-50.009-50.009c0-19.112,10.746-35.929,26.794-44.33c-0.955,4.639-1.444,9.383-1.443,14.154
			c0,33.992,24.35,62.403,56.525,68.706C93.038,115.439,81.807,119.622,70.01,119.622z"/>
	</g>
</g>
<g>
	<g>
		<path d="M459.54,468.393c-0.129-0.64-0.32-1.269-0.57-1.87c-0.25-0.599-0.56-1.179-0.92-1.729c-0.36-0.541-0.78-1.05-1.24-1.521
			c-0.46-0.46-0.97-0.87-1.52-1.239c-0.54-0.36-1.12-0.671-1.73-0.921c-0.599-0.25-1.229-0.439-1.87-0.569
			c-1.29-0.26-2.62-0.26-3.909,0c-0.631,0.13-1.261,0.319-1.87,0.569c-0.601,0.25-1.181,0.561-1.721,0.921
			c-0.55,0.369-1.06,0.779-1.52,1.239c-0.46,0.471-0.88,0.981-1.25,1.521c-0.36,0.549-0.67,1.129-0.92,1.729
			c-0.25,0.6-0.44,1.23-0.57,1.87c-0.13,0.65-0.19,1.3-0.19,1.96c0,0.65,0.06,1.31,0.19,1.95c0.13,0.64,0.32,1.269,0.57,1.87
			c0.25,0.599,0.56,1.189,0.92,1.729c0.37,0.551,0.79,1.061,1.25,1.521c0.46,0.46,0.97,0.88,1.52,1.24
			c0.54,0.359,1.12,0.67,1.721,0.92c0.609,0.25,1.239,0.439,1.87,0.569c0.65,0.131,1.31,0.2,1.96,0.2c0.649,0,1.31-0.069,1.949-0.2
			c0.641-0.13,1.27-0.319,1.87-0.569c0.61-0.25,1.19-0.561,1.73-0.92c0.55-0.36,1.06-0.78,1.52-1.24c0.46-0.46,0.88-0.97,1.24-1.521
			c0.361-0.54,0.67-1.129,0.92-1.729c0.25-0.6,0.44-1.23,0.57-1.87c0.13-0.639,0.2-1.3,0.2-1.95
			C459.74,469.693,459.67,469.043,459.54,468.393z"/>
	</g>
</g>
<g>
	<g>
		<path d="M409.739,460.349H62.138c-5.522,0-10,4.478-10,10c0,5.522,4.478,10,10,10h347.6c5.523,0,10-4.478,10.001-10
			C419.739,464.827,415.261,460.349,409.739,460.349z"/>
	</g>
</g>
<g>
	<g>
		<path d="M501.562,427.933H398.866v-58.77h103.135c3.934,0,7.502-2.307,9.118-5.893c1.615-3.587,0.978-7.788-1.63-10.733
			L446.6,281.472h28.99c3.95,0,7.53-2.325,9.136-5.934c1.606-3.608,0.938-7.825-1.706-10.76l-56.74-62.986h26.467
			c3.761,0,7.204-2.11,8.911-5.462c1.707-3.352,1.389-7.377-0.823-10.419L370.823,62.117c-1.882-2.588-4.888-4.119-8.088-4.119
			s-6.206,1.531-8.088,4.119l-90.012,123.795c-1.335,1.835-1.98,4.029-1.906,6.217l-85.909-77.683
			c-3.809-3.443-9.605-3.443-13.414,0L3.294,259.225c-3.068,2.773-4.111,7.15-2.625,11.011c1.486,3.859,5.195,6.406,9.332,6.406
			H30.28v151.291H10.564c-5.516,0-9.989,4.465-10,9.98l-0.125,64.069c-0.005,2.655,1.046,5.204,2.922,7.084
			c1.876,1.879,4.423,2.936,7.078,2.936h490.998c5.516,0,9.989-4.465,10-9.981l0.125-64.069c0.005-2.655-1.046-5.204-2.922-7.084
			C506.764,428.99,504.218,427.933,501.562,427.933z M362.735,85.002l70.377,96.79h-8.638c-0.025,0-0.051-0.001-0.076-0.001H384.24
			c-5.523,0-10,4.478-10,10c0,5.522,4.477,10,10,10h15.12l53.762,59.681H384.24c-5.523,0-10,4.478-10,10c0,5.522,4.477,10,10,10
			h35.654l59.904,67.691H309.945v-72.521h20.279c9.776,0,12.964-11.64,6.707-17.417l-34.476-31.175l26.632-29.564
			c2.644-2.936,3.313-7.151,1.706-10.76c-1.607-3.608-5.186-5.934-9.136-5.934h-29.299L362.735,85.002z M378.866,369.163v58.77
			h-32.262v-58.77H378.866z M326.604,369.163v58.77h-16.659v-58.77H326.604z M299.19,201.792l-11.57,12.844l-14.204-12.844H299.19z
			 M170.113,135.345l134.143,121.297H35.97L170.113,135.345z M214.848,385.11v-22.822h75.097v22.822H214.848z M289.945,405.11
			v22.822h-75.097V405.11H289.945z M214.848,342.287v-22.823h75.097v22.823H214.848z M50.28,299.464v-22.822h239.665v22.822H50.28z
			 M194.848,319.464v108.468h-49.471V319.464H194.848z M50.28,385.11v-22.822h75.097v22.822H50.28z M125.377,405.11v22.822H50.28
			V405.11H125.377z M50.28,342.288v-22.823h75.097v22.823H50.28z M491.457,492.002H20.459l0.086-44.069h470.998L491.457,492.002z"/>
	</g>
</g>
<g>
</g>
<g>
</g>
<g>
</g>
<g>
</g>
<g>
</g>
<g>
</g>
<g>
</g>
<g>
</g>
<g>
</g>
<g>
</g>
<g>
</g>
<g>
</g>
<g>
</g>
<g>
</g>
<g>
</g>
</svg>
