<?xml version="1.0"?>
<svg xmlns="http://www.w3.org/2000/svg" xmlns:xlink="http://www.w3.org/1999/xlink" xmlns:svgjs="http://svgjs.com/svgjs" version="1.1" width="512" height="512" x="0" y="0" viewBox="0 0 256 256" style="enable-background:new 0 0 512 512" xml:space="preserve" class=""><g><path xmlns="http://www.w3.org/2000/svg" d="m175.817 149.465h-91.909c-18.84 0-37.113-8.271-52.844-23.919a2.5 2.5 0 1 1 3.527-3.546c14.773 14.7 31.826 22.464 49.317 22.464h91.909c17.49 0 34.542-7.767 49.315-22.462a2.5 2.5 0 0 1 3.527 3.545c-15.73 15.647-34.003 23.918-52.842 23.918z" fill="#000000" data-original="#ebe7f2" style="" class=""/><path xmlns="http://www.w3.org/2000/svg" d="m205.246 222.9c-7.387 0-11.185-3.366-14.536-6.336-3.074-2.724-5.729-5.077-11.219-5.077s-8.143 2.353-11.217 5.077c-3.35 2.97-7.147 6.336-14.533 6.336s-11.183-3.366-14.533-6.336c-3.074-2.724-5.728-5.077-11.217-5.077s-8.143 2.353-11.217 5.077c-3.35 2.97-7.147 6.336-14.533 6.336s-11.183-3.366-14.533-6.336c-3.073-2.724-5.727-5.077-11.216-5.077s-8.142 2.353-11.215 5.077c-3.35 2.97-7.146 6.336-14.531 6.336s-11.182-3.366-14.532-6.336c-3.072-2.724-5.726-5.077-11.214-5.077a2.5 2.5 0 0 1 0-5c7.385 0 11.182 3.366 14.532 6.336 3.072 2.724 5.726 5.077 11.214 5.077s8.141-2.353 11.214-5.077c3.35-2.97 7.147-6.336 14.532-6.336s11.183 3.366 14.533 6.336c3.073 2.724 5.727 5.077 11.216 5.077s8.143-2.353 11.217-5.077c3.35-2.97 7.147-6.336 14.533-6.336s11.183 3.366 14.533 6.336c3.074 2.724 5.728 5.077 11.217 5.077s8.143-2.353 11.217-5.078c3.35-2.97 7.147-6.335 14.533-6.335s11.185 3.366 14.536 6.336c3.074 2.724 5.729 5.077 11.219 5.077s8.145-2.353 11.219-5.078c3.35-2.97 7.148-6.335 14.535-6.335a2.5 2.5 0 0 1 0 5c-5.49 0-8.145 2.353-11.219 5.077-3.35 2.973-7.148 6.336-14.535 6.336z" fill="#000000" data-original="#ebe7f2" style="" class=""/><g xmlns="http://www.w3.org/2000/svg" fill="#846f75"><path d="m34.937 151.142 13.454 8.969a2.5 2.5 0 0 0 2.773-4.16l-13.454-8.97a14.558 14.558 0 1 1 16.151-24.226l1.169.779a72.66 72.66 0 0 0 40.433 12.242h30.277l-10.184 15.61a11.352 11.352 0 0 0 -13.34 4.517l-7.63 11.749a11.375 11.375 0 0 0 19.08 12.391l7.629-11.749a11.392 11.392 0 0 0 -1.506-14.246l11.92-18.272h32.553a72.66 72.66 0 0 0 40.438-12.242l.658-.438c6.857-4.573 16.084-3 20.569 3.5a14.559 14.559 0 0 1 -3.907 20.382l-13.454 8.97a2.5 2.5 0 1 0 2.773 4.16l13.455-8.969a19.558 19.558 0 0 0 5.249-27.381c-6.026-8.739-18.344-10.9-27.458-4.825l-.658.438a67.684 67.684 0 0 1 -37.66 11.4h-29.296l5.527-8.471a2.5 2.5 0 1 0 -4.187-2.732l-7.311 11.208h-33.537a67.684 67.684 0 0 1 -37.66-11.4l-1.169-.779a19.558 19.558 0 1 0 -21.7 32.547zm82.163 14.428-7.63 11.75a6.375 6.375 0 0 1 -8.818 1.874 6.376 6.376 0 0 1 -1.874-8.819l7.63-11.749a6.375 6.375 0 0 1 10.692 6.944z" fill="#000000" data-original="#846f75" style="" class=""/><path d="m25 165.686c5.488 0 8.142 2.353 11.214 5.077 3.35 2.97 7.147 6.336 14.532 6.336s11.181-3.366 14.531-6.336c3.073-2.724 5.727-5.077 11.215-5.077a2.5 2.5 0 0 0 0-5c-7.385 0-11.182 3.366-14.532 6.335-3.073 2.725-5.727 5.078-11.214 5.078s-8.142-2.353-11.214-5.077c-3.35-2.97-7.147-6.336-14.532-6.336a2.5 2.5 0 0 0 0 5z" fill="#000000" data-original="#846f75" style="" class=""/><path d="m231 160.686c-7.387 0-11.185 3.366-14.535 6.335-3.074 2.725-5.729 5.078-11.219 5.078s-8.145-2.353-11.219-5.078c-3.351-2.969-7.149-6.335-14.536-6.335s-11.183 3.366-14.533 6.335c-3.074 2.725-5.728 5.078-11.217 5.078a2.5 2.5 0 0 0 0 5c7.386 0 11.183-3.366 14.533-6.336 3.074-2.724 5.728-5.077 11.217-5.077s8.145 2.353 11.219 5.077c3.351 2.97 7.149 6.336 14.536 6.336s11.185-3.366 14.535-6.336c3.074-2.724 5.729-5.077 11.219-5.077a2.5 2.5 0 0 0 0-5z" fill="#000000" data-original="#846f75" style="" class=""/><path d="m231 183.588c-7.387 0-11.185 3.366-14.535 6.335-3.074 2.724-5.729 5.077-11.219 5.077s-8.145-2.353-11.219-5.077c-3.351-2.969-7.149-6.335-14.536-6.335s-11.183 3.366-14.533 6.335c-3.074 2.724-5.728 5.077-11.217 5.077s-8.143-2.352-11.217-5.077c-3.35-2.969-7.147-6.335-14.533-6.335s-11.183 3.366-14.533 6.335c-3.074 2.724-5.728 5.077-11.217 5.077s-8.143-2.353-11.216-5.077c-3.35-2.969-7.147-6.335-14.533-6.335s-11.182 3.366-14.532 6.335c-3.073 2.725-5.727 5.077-11.214 5.077s-8.142-2.352-11.214-5.076c-3.35-2.97-7.147-6.336-14.532-6.336a2.5 2.5 0 0 0 0 5c5.488 0 8.142 2.352 11.214 5.077 3.35 2.97 7.147 6.335 14.532 6.335s11.181-3.365 14.531-6.335c3.073-2.724 5.727-5.077 11.215-5.077s8.143 2.352 11.216 5.077c3.351 2.97 7.147 6.335 14.533 6.335s11.183-3.365 14.533-6.335c3.074-2.724 5.728-5.077 11.217-5.077s8.143 2.353 11.217 5.077c3.35 2.97 7.147 6.335 14.533 6.335s11.183-3.365 14.533-6.335c3.074-2.725 5.728-5.077 11.217-5.077s8.145 2.353 11.219 5.077c3.351 2.97 7.149 6.335 14.536 6.335s11.185-3.365 14.535-6.335c3.074-2.724 5.729-5.077 11.219-5.077a2.5 2.5 0 0 0 0-5z" fill="#000000" data-original="#846f75" style="" class=""/><path d="m143.47 113.172a2.5 2.5 0 0 0 3.46-.728l5.223-8.005 2.225 1.416a2.5 2.5 0 1 0 2.685-4.217l-8.591-5.469a2.5 2.5 0 0 0 -2.684 4.218l2.147 1.367-5.192 7.958a2.5 2.5 0 0 0 .727 3.46z" fill="#000000" data-original="#846f75" style="" class=""/></g><path xmlns="http://www.w3.org/2000/svg" d="m121.672 81.277a2.5 2.5 0 0 1 -.772-4.877 11.054 11.054 0 0 0 0-21.019 2.5 2.5 0 0 1 1.547-4.755 16.055 16.055 0 0 1 0 30.529 2.488 2.488 0 0 1 -.775.122z" fill="#000000" data-original="#ebe7f2" style="" class=""/><path xmlns="http://www.w3.org/2000/svg" d="m125.485 81.939a16.05 16.05 0 1 1 16.05-16.049 16.066 16.066 0 0 1 -16.05 16.049zm0-27.1a11.05 11.05 0 1 0 11.05 11.05 11.062 11.062 0 0 0 -11.05-11.049z" fill="#000000" data-original="#ed9abc" style="" class=""/><path xmlns="http://www.w3.org/2000/svg" d="m119.849 127.981a2.5 2.5 0 0 1 -2.187-3.707l2.5-4.542a2.5 2.5 0 0 1 4.379 2.413l-2.5 4.542a2.5 2.5 0 0 1 -2.192 1.294z" fill="#000000" data-original="#ed9abc" style="" class=""/><path xmlns="http://www.w3.org/2000/svg" d="m95.457 122.48a2.5 2.5 0 0 1 -2.215-3.656l11.261-21.6a16.935 16.935 0 0 1 11.378-9.988 14.408 14.408 0 0 1 12.857 2.7 2.5 2.5 0 0 1 -3.173 3.865 9.45 9.45 0 0 0 -8.445-1.724 11.917 11.917 0 0 0 -8.026 7.129c-.031.076-.065.15-.1.222l-11.316 21.7a2.5 2.5 0 0 1 -2.221 1.352z" fill="#000000" data-original="#ed9abc" style="" class=""/><path xmlns="http://www.w3.org/2000/svg" d="m144.251 125.137a7.708 7.708 0 0 1 -3.956-1.095l-23.271-13.909a7.724 7.724 0 1 1 7.926-13.259l23.27 13.908a7.724 7.724 0 0 1 -2.377 14.189 7.734 7.734 0 0 1 -1.592.166zm-23.26-24.359a2.739 2.739 0 0 0 -.67.084 2.723 2.723 0 0 0 -.732 4.979l23.271 13.909a2.717 2.717 0 0 0 1.955.328 2.724 2.724 0 0 0 .84-5l-23.271-13.908a2.708 2.708 0 0 0 -1.393-.392z" fill="#000000" data-original="#ed9abc" style="" class=""/></g></svg>
