<svg height="512" viewBox="0 0 512 512" width="512" xmlns="http://www.w3.org/2000/svg"><g id="outline"><path d="m484.687 256.069v-8l8.97-8.971a8 8 0 0 0 0-11.313l-22.627-22.628a8 8 0 0 0 -11.314 0l-22.628 22.628a8.011 8.011 0 0 0 -1.933 3.127l-2.011 6.035a7.943 7.943 0 0 0 -7.37 2.152l-48.484 48.484a56.4 56.4 0 0 0 -19.307-19.293l-12.1-7.26-72.843-72.843a8 8 0 0 0 0-11.314l-7.513-7.513a55.39 55.39 0 0 0 -2.048-72.227l-22.09-24.3a55.46 55.46 0 0 0 -71.803-8.833l-.5.334a47.134 47.134 0 0 1 -59.316-5.874 46.7 46.7 0 0 1 -13.77-33.246v-1.214a8 8 0 0 0 -16 0v1.214a62.6 62.6 0 0 0 18.455 44.555 63.176 63.176 0 0 0 79.505 7.872l.5-.334a39.226 39.226 0 0 1 51.088 6.29l22.09 24.3a39.413 39.413 0 0 1 2.491 50.067l-26.345-26.345a7.97 7.97 0 0 0 -5.885-2.332l-3.241-16.207a8 8 0 0 0 -4.267-5.587l-22.627-11.314a8 8 0 0 0 -10.931 4l-15.71 36.657-36.656 15.709a8 8 0 0 0 -4 10.931l11.313 22.627a8 8 0 0 0 5.586 4.268l16.208 3.241a7.968 7.968 0 0 0 2.326 5.888l22.623 22.623v.005l22.623 22.622a8 8 0 0 0 11.314 0l72.853 72.85 7.261 12.1a56.4 56.4 0 0 0 19.294 19.306l-48.486 48.484a7.945 7.945 0 0 0 -2.151 7.37l-6.035 2.012a8 8 0 0 0 -3.128 1.932l-22.627 22.628a8 8 0 0 0 0 11.313l22.627 22.628a8 8 0 0 0 11.315 0l8.97-8.971h8a8 8 0 0 0 7.155-4.423l10.732-21.465 61.308-61.308 2.028 2.028a31.861 31.861 0 0 0 9.285 20.6l11.139 11.139-19.469 11.682a41.265 41.265 0 0 0 -14.1 14.1 47.251 47.251 0 0 0 1.2 50.3l8.923 13.385a8 8 0 0 0 14.246-1.91l6.076-18.232a25.24 25.24 0 0 1 15.887-15.886 41.21 41.21 0 0 0 25.567-24.825 39.981 39.981 0 0 0 24.07-68.038l-5.657-5.657a8 8 0 0 0 -11.313 0l-11.314-11.314a31.861 31.861 0 0 0 -20.6-9.285l-2.028-2.028 61.312-61.307 21.467-10.734a8 8 0 0 0 4.42-7.155zm-211.648 22.631-2.828-2.828 4.243-29.7 29.7-4.242 2.829 2.828zm-45.254-45.254 11.315-11.318 19.8 19.8-2.828 19.8zm28.284-50.913-16.969 16.967-11.314-11.314 16.97-16.97zm33.941 45.256-19.8 2.828-19.8-19.8 11.316-11.317zm-56.569-67.889-16.97 16.97-11.313-11.313 16.97-16.97zm-41.241-45.616 11.54 5.769 4.049 20.25-13.942 13.942-13.147-13.145zm-49.63 49.63 26.822-11.495 11.78 11.781 1.358 1.358-13.943 13.942-20.25-4.049zm51.277 12.959 11.313 11.313-16.97 16.971-11.314-11.313zm5.656 39.6 16.968-16.973 11.314 11.314-16.971 16.97zm137.897 128.268a8 8 0 0 0 -5.256-5.752 40.38 40.38 0 0 1 -21.845-17.522l-7.767-12.945a8.02 8.02 0 0 0 -1.2-1.541l-16.979-16.971 33.941-33.941 16.971 16.971a8.05 8.05 0 0 0 1.541 1.2l12.945 7.767a40.377 40.377 0 0 1 17.522 21.844 8 8 0 0 0 13.248 3.126l50.91-50.91 11.314 11.313-59.882 59.882h-19.314a8 8 0 0 0 -8 8v19.314l-59.882 59.882-11.313-11.314 50.913-50.912a8 8 0 0 0 2.133-7.491zm37.468 1.837a32.044 32.044 0 0 0 -3.313 3.894v-7.208h7.208a32.12 32.12 0 0 0 -3.9 3.314zm-95.459 93.822h-6.37a8 8 0 0 0 -5.657 2.343l-5.656 5.657-11.314-11.314 15.635-15.635 10.488-3.5 6.5 6.5 2.9 2.9zm114.289.831a41.32 41.32 0 0 0 -26 26l-.9 2.712a31.181 31.181 0 0 1 -.64-32.961 25.184 25.184 0 0 1 8.615-8.614l15.829-9.5 1.24 1.241a39.733 39.733 0 0 0 15.751 9.685 25.16 25.16 0 0 1 -13.893 11.439zm50.42-49.4a24 24 0 0 1 -40.971 16.969l33.942-33.941a23.846 23.846 0 0 1 7.029 16.974zm-24-22.627-22.628 22.629-11.313-11.313a16.018 16.018 0 0 1 0-22.628 16.019 16.019 0 0 1 22.628 0zm50.911-130.104a8 8 0 0 0 -2.342 5.656v6.37l-13.048 6.524-9.4-9.4 3.5-10.488 15.636-15.636 11.314 11.314z"/></g></svg>