<?xml version="1.0" encoding="iso-8859-1"?>
<!-- Generator: Adobe Illustrator 19.0.0, SVG Export Plug-In . SVG Version: 6.00 Build 0)  -->
<svg version="1.1" id="Capa_1" xmlns="http://www.w3.org/2000/svg" xmlns:xlink="http://www.w3.org/1999/xlink" x="0px" y="0px"
	 viewBox="0 0 496.251 496.251" style="enable-background:new 0 0 496.251 496.251;" xml:space="preserve">
<g>
	<g>
		<path d="M344.154,264.251h-16v2.4c0,16.8-6.4,33.6-18.4,45.6l-11.2,11.2l11.2,11.2l11.2-11.2c15.2-15.2,23.2-35.2,23.2-56.8
			L344.154,264.251L344.154,264.251z"/>
	</g>
</g>
<g>
	<g>
		<path d="M266.554,346.651l-4,4c-19.2,19.2-30.4,45.6-30.4,73.6h16c0-23.2,9.6-45.6,25.6-62.4l4-4L266.554,346.651z"/>
	</g>
</g>
<g>
	<g>
		<path d="M306.554,378.651l-4,4c-19.2,19.2-30.4,45.6-30.4,73.6h16c0-23.2,9.6-45.6,25.6-62.4l4-4L306.554,378.651z"/>
	</g>
</g>
<g>
	<g>
		<path d="M488.154,384.251h-24c-2.4,0-4,0.8-5.6,2.4l-16,16c-1.6,1.6-2.4,3.2-2.4,5.6v12.8l-11.2,11.2h-28.8c-2.4,0-4,0.8-5.6,2.4
			l-10.4,10.4l-18.4-18.4c-1.6-1.6-3.2-2.4-5.6-2.4h-16c1.6-16,6.4-32,16-45.6l18.4-28c8.8-12.8,13.6-28.8,13.6-44v-4.8
			c0-26.4-12.8-50.4-34.4-65.6l-39.2-27.2l22.4-16l21.6,21.6c2.4,2.4,7.2,3.2,10.4,0.8l18.4-12l11.2,11.2c2.4,2.4,7.2,3.2,10.4,0.8
			l21.6-14.4l49.6,37.6l9.6-12.8l-104-80c-2.4-2.4-6.4-2.4-9.6,0l-104,74.4l-111.2-74.4c-2.4-1.6-6.4-1.6-8.8,0l-152,96l8.8,13.6
			l83.2-53.6l27.2,20.8c3.2,2.4,6.4,2.4,9.6,0l27.2-20.8l19.2,12.8c3.2,2.4,7.2,1.6,10.4-0.8l19.2-19.2l80,53.6
			c4.8,3.2,7.2,8,7.2,13.6v6.4c0,4.8-2.4,10.4-6.4,12.8l-34.4,24c-48.8,34.4-82.4,87.2-92,146.4c-4.8-3.2-11.2-4-16.8-2.4
			c-8-10.4-23.2-12-33.6-3.2c-0.8,0.8-2.4,2.4-3.2,3.2c-2.4-0.8-4.8-0.8-7.2-0.8c-1.6-4-4-7.2-6.4-9.6v-24.8c4,1.6,8,2.4,12,2.4
			c20,0,36-16,36-36c0-1.6,0-3.2,0-4.8c21.6-4,36-24.8,32-46.4c-1.6-9.6-7.2-18.4-15.2-24c0-4.8-1.6-10.4-3.2-14.4
			c2.4-4,3.2-8.8,3.2-13.6c0-15.2-12.8-28-28-28c-4.8,0-10.4,1.6-14.4,4c-11.2-7.2-25.6-4.8-32.8,6.4c-5.6-2.4-9.6-3.2-13.6-3.2
			c-17.6,0-32,14.4-32,32c0,0.8,0,0.8,0,1.6c-9.6,3.2-16,12.8-16,22.4v0.8c-16.8,4.8-27.2,21.6-23.2,39.2c4,14.4,16.8,24,31.2,24
			c0,17.6,14.4,32,32,32c5.6,0,11.2-1.6,16-4v28c-10.4,0-19.2,6.4-22.4,16c-13.6-0.8-24.8,9.6-25.6,22.4
			c-0.8,13.6,9.6,24.8,22.4,25.6c0.8,0,0.8,0,1.6,0h96c3.2,0,7.2-0.8,10.4-2.4c1.6,1.6,3.2,2.4,5.6,2.4h320c4.8,0,8-3.2,8-8v-96
			C496.154,387.451,492.954,384.251,488.154,384.251z M384.154,161.851l36.8,28l-11.2,8l-11.2-11.2c-2.4-2.4-7.2-3.2-10.4-0.8
			l-18.4,12l-14.4-14.4L384.154,161.851z M183.354,197.851l-18.4-12c-3.2-1.6-6.4-1.6-9.6,0l-27.2,20.8l-17.6-12.8l49.6-31.2
			l35.2,24L183.354,197.851z M76.154,386.651c-5.6,7.2-15.2,8-22.4,2.4c-3.2-3.2-5.6-8-5.6-12.8c0-2.4,0.8-4.8,1.6-7.2
			c1.6-4,0-8.8-4-10.4c-2.4-0.8-4.8-0.8-7.2,0c-8,4-17.6,0.8-21.6-7.2s-0.8-17.6,7.2-21.6c2.4-0.8,4.8-1.6,8-1.6h0.8
			c3.2,0,5.6-0.8,7.2-4c1.6-2.4,1.6-5.6,0-8c0.8-0.8,0-2.4,0-4c0-4,3.2-8,8-8h0.8c4,0.8,8-2.4,8.8-7.2c0-1.6,0-2.4-0.8-4
			c-0.8-0.8-0.8-3.2-0.8-4.8c0-8.8,7.2-16,16-16c4,0,8,1.6,11.2,4c3.2,3.2,8,2.4,11.2-0.8c0.8-1.6,1.6-3.2,2.4-4.8
			c0-4,4-7.2,8.8-7.2c2.4,0,4.8,1.6,5.6,3.2c1.6,1.6,4,3.2,6.4,3.2c2.4,0,4.8-0.8,6.4-2.4c2.4-2.4,5.6-4,8.8-4c6.4,0,12,5.6,12,12
			c0,3.2-0.8,5.6-3.2,8c-2.4,3.2-2.4,7.2,0,10.4c2.4,2.4,3.2,6.4,3.2,9.6c0,0.8,0,1.6,0,3.2c-0.8,3.2,0.8,6.4,4,8
			c11.2,6.4,16,20.8,9.6,32.8c-4,8-12,12-20.8,12h-0.8h-1.6c-3.2,0-5.6,0.8-7.2,3.2c-1.6,2.4-1.6,5.6-0.8,8c1.6,2.4,2.4,5.6,2.4,8.8
			c0,11.2-8.8,20-20,20c-4,0-8.8-1.6-12-4v-32l28.8-21.6l-9.6-12.8l-20.8,15.2v-40h-16v40l-19.2-14.4l-9.6,12.8l28.8,21.6v20
			C78.554,384.251,77.754,385.051,76.154,386.651z M156.954,479.451c-1.6,0-3.2,0.8-4.8,0.8h-96c-4.8,0-8-3.2-8-8s3.2-8,8-8
			c1.6,0,3.2,0.8,4,0.8c2.4,1.6,5.6,1.6,8.8,0c2.4-1.6,4-4.8,3.2-8v-0.8c0-4.8,3.2-8,8-8s8,3.2,8,8c0,0.8,0,0.8,0,1.6
			c-0.8,4,2.4,8.8,6.4,8.8c1.6,0,4,0,5.6-0.8c2.4-1.6,5.6-1.6,8.8,0c4,2.4,8.8,1.6,11.2-2.4c0-0.8,0.8-0.8,0.8-1.6
			c1.6-4,5.6-6.4,10.4-4.8c2.4,0.8,4,2.4,4.8,4.8c1.6,4,6.4,6.4,10.4,4.8c0.8,0,1.6-0.8,1.6-0.8c4-2.4,8.8-1.6,11.2,2.4
			C161.754,472.251,160.954,477.051,156.954,479.451z M304.154,448.251v12.8l-13.6,13.6c-1.6,1.6-2.4,3.2-2.4,5.6h-112
			c2.4-64.8,35.2-124.8,88-162.4l34.4-24c8.8-6.4,13.6-16,13.6-26.4v-6.4c0-10.4-5.6-20.8-14.4-26.4l-8-4.8l15.2-10.4l44,30.4
			c16.8,12,27.2,31.2,27.2,52v4.8c0,12.8-4,24.8-10.4,35.2l-18.4,28c-11.2,16-17.6,35.2-18.4,54.4c-2.4,0-4,0.8-5.6,2.4l-16,16
			C304.954,444.251,304.154,445.851,304.154,448.251z M344.154,472.251v8h-36.8l10.4-10.4c1.6-1.6,2.4-3.2,2.4-5.6v-12.8l11.2-11.2
			h25.6l8.8,8.8c-0.8,0-2.4,0.8-3.2,1.6l-16,16C344.954,468.251,344.154,469.851,344.154,472.251z M480.154,480.251h-120v-4.8
			l11.2-11.2h12.8c2.4,0,4-0.8,5.6-2.4l13.6-13.6h20.8v16h16v-20.8l8-8l10.4,10.4l11.2-11.2l-13.6-13.6v-9.6l11.2-11.2h12.8V480.251
			z"/>
	</g>
</g>
<g>
	<g>
		<path d="M156.154,17.051c-8.8-15.2-28-20.8-43.2-12.8c-4,2.4-8,5.6-10.4,9.6c-14.4-16.8-40-18.4-56-4c-7.2,6.4-12,13.6-13.6,22.4
			h-0.8c-17.6,0-32,14.4-32,32s14.4,32,32,32h80c17.6,0,32-14.4,32-32c0-1.6,0-3.2-0.8-4
			C158.554,51.451,164.154,32.251,156.154,17.051z M112.154,80.251h-80c-8.8,0-16-7.2-16-16s7.2-16,16-16c1.6,0,4,0,5.6,0.8
			c4,1.6,8.8-0.8,10.4-4.8c0-0.8,0-1.6,0-3.2v-0.8c0-13.6,10.4-24,24-24s24,10.4,24,24c0,0,0,0.8,0,1.6c0,4.8,3.2,8,7.2,8.8
			c0.8,0,2.4,0,3.2-0.8c1.6-1.6,4-1.6,5.6-1.6c8.8,0,16,7.2,16,16S120.954,80.251,112.154,80.251z M137.754,45.051
			c-6.4-8-16-12.8-26.4-12.8h0.8c0-8.8,7.2-16,16-16s16,7.2,16,16C144.154,37.051,141.754,41.851,137.754,45.051z"/>
	</g>
</g>
<g>
	<g>
		<path d="M472.954,64.251c-0.8,0-0.8,0-0.8,0c-2.4-20-20-33.6-40-32c-3.2,0-6.4,1.6-9.6,2.4c-7.2-25.6-33.6-40-59.2-32.8
			c-4,1.6-8.8,3.2-12,5.6c-7.2-4.8-15.2-7.2-23.2-7.2c-19.2,0-35.2,13.6-39.2,32h-0.8c-17.6,0-32,14.4-32,32s14.4,32,32,32h33.6
			c3.2,9.6,12,16,22.4,16h128c13.6,0,24-10.4,24-24C496.154,75.451,485.754,64.251,472.954,64.251z M321.754,80.251h-33.6
			c-8.8,0-16-7.2-16-16s7.2-16,16-16c1.6,0,4,0,5.6,0.8c4,1.6,8.8-0.8,10.4-4.8c0-0.8,0-1.6,0-3.2v-0.8c0-12.8,10.4-24,24-24
			c4,0,7.2,0.8,10.4,2.4c-6.4,8.8-10.4,19.2-10.4,29.6c0,6.4,1.6,12.8,4,19.2C327.354,70.651,323.354,74.651,321.754,80.251z
			 M476.154,95.451c-0.8,0-2.4,0.8-4,0.8h-128c-4.8,0-8-3.2-8-8s3.2-8,8-8c3.2,0,6.4-1.6,8-4.8c1.6-2.4,0.8-5.6-0.8-8
			c-4.8-5.6-7.2-12-7.2-19.2c0-17.6,14.4-32,32-32c17.6,0,32,13.6,32,32c0,4.8,3.2,8.8,7.2,8.8c2.4,0,4.8-0.8,6.4-2.4
			c7.2-8,20-8,28-0.8c5.6,4.8,7.2,12.8,5.6,19.2c-0.8,4,1.6,8.8,5.6,9.6c2.4,0.8,4.8,0,6.4-0.8c4-2.4,8.8-1.6,11.2,2.4
			S480.154,93.051,476.154,95.451z"/>
	</g>
</g>
<g>
	<g>
		<path d="M360.154,56.251h16c0-4.8,3.2-8,8-8v-16C370.554,32.251,360.154,42.651,360.154,56.251z"/>
	</g>
</g>
<g>
</g>
<g>
</g>
<g>
</g>
<g>
</g>
<g>
</g>
<g>
</g>
<g>
</g>
<g>
</g>
<g>
</g>
<g>
</g>
<g>
</g>
<g>
</g>
<g>
</g>
<g>
</g>
<g>
</g>
</svg>
