<svg id="Capa_1" enable-background="new 0 0 512 512" height="512" viewBox="0 0 512 512" width="512" xmlns="http://www.w3.org/2000/svg"><g><g><path d="m497.436 222.387v-43.252c0-5.523-4.478-10-10-10h-68.592c4.765-6.151 8.231-13.413 10.065-21.388 4.542-19.743-1.19-41.774-14.959-57.497-18.688-21.341-49.78-29.222-85.303-21.62-36.575 7.827-66.422 30.21-93.227 53.232-24.616 21.143-53.859 43.2-84.103 46.495-3.296.359-6.732.632-10.224.777h-10.182c-.048 0-.094.006-.141.007-17.149-.756-33.846-5.701-40.987-20.361-3.502-7.189-3.457-15.73.116-21.759 2.539-4.285 7.289-7.055 13.031-7.602 6.102-.583 11.905 1.501 15.506 5.57 1.26 1.424 5.117 6.438 1.828 11.183-3.147 4.539-2.019 10.769 2.52 13.916 4.538 3.146 10.769 2.019 13.916-2.52 9.218-13.294 3.99-27.613-3.288-35.834-7.824-8.838-19.929-13.409-32.376-12.224-4.994.475-9.669 1.829-13.858 3.926v-35.073c14.076-1.464 25.088-13.396 25.088-27.853v-12.505c-.001-15.442-12.564-28.005-28.006-28.005h-56.255c-15.442 0-28.005 12.563-28.005 28.005v12.505c0 14.287 10.755 26.1 24.592 27.79v390.07c0 5.523 4.477 10 10 10s10-4.477 10-10v-389.854h22.585v433.484c0 5.523 4.477 10 10 10s10-4.477 10-10v-325.961c7.894 5.858 18.767 10.51 33.734 12.355v33.992c-3.764 7.545-14.565 31.59-14.565 59.083s10.801 51.538 14.565 59.083v42.267c0 5.523 4.477 10 10 10h356.524c5.522 0 10-4.477 10-10v-42.267c3.765-7.544 14.565-31.589 14.565-59.082s-10.8-51.538-14.564-59.083zm-413.176-173.871h-56.255c-4.414 0-8.005-3.591-8.005-8.005v-12.506c0-4.414 3.591-8.005 8.005-8.005h56.255c4.414 0 8.005 3.591 8.005 8.005v12.505c0 4.415-3.591 8.006-8.005 8.006zm164.192 88.518c28.659-24.614 53.975-42.34 84.381-48.847 13.353-2.857 46.518-7.092 66.07 15.238 9.468 10.811 13.595 26.448 10.516 39.837-2.351 10.22-8.813 18.547-17.73 22.847-3.675 1.772-7.583 2.778-11.524 3.025-10.688 0-21.624-3.834-26.607-14.057-4.069-8.348-1.041-24.533 10.032-26.032 3.454-.466 7.198.381 9.325 2.11 1.213.986 1.808 2.187 1.929 3.894.391 5.509 5.198 9.648 10.683 9.267 5.509-.391 9.658-5.174 9.267-10.683-.516-7.266-3.718-13.488-9.26-17.995-11.68-9.498-29.629-8.748-40.767 1.125-11.23 9.954-15.934 27.123-11.45 41.43 1.22 3.894 3.036 7.57 5.335 10.942h-133.213c15.461-9.303 29.881-20.822 43.013-32.101zm230.237 196.233c-.822 1.483-1.254 3.152-1.254 4.849v34.704h-336.523v-34.704c0-1.685-.434-3.357-1.246-4.834-.133-.242-13.319-24.535-13.319-51.812s13.186-51.569 13.311-51.797c.823-1.483 1.254-3.152 1.254-4.849v-35.67c.155-.006.314-.014.47-.02h336.054v35.69c0 1.685.434 3.357 1.246 4.834.132.242 13.318 24.535 13.318 51.812s-13.186 51.569-13.311 51.797z"/><path d="m43.83 498.18c-1.615-3.941-5.732-6.46-9.971-6.144-4.357.325-8.046 3.52-9.014 7.776-1.988 8.735 8.177 15.474 15.498 10.359 3.774-2.639 5.259-7.737 3.487-11.991z"/><path d="m465.866 299.256c-.015 0-.028 0-.043 0-3.595.02-7.385.035-10.529.041v-44.105c0-4.142-3.357-7.5-7.5-7.5s-7.5 3.358-7.5 7.5v51.564c0 3.654 2.633 6.776 6.234 7.393.532.091.901.154 6.725.154 2.775 0 6.792-.014 12.654-.047 4.142-.023 7.481-3.4 7.458-7.542-.023-4.128-3.376-7.458-7.499-7.458z"/><path d="m191.126 247.691c-4.142 0-7.5 3.358-7.5 7.5v17.419h-20.713v-17.419c0-4.142-3.358-7.5-7.5-7.5s-7.5 3.358-7.5 7.5v51.608c0 4.142 3.358 7.5 7.5 7.5s7.5-3.358 7.5-7.5v-19.189h20.713v19.189c0 4.142 3.358 7.5 7.5 7.5s7.5-3.358 7.5-7.5v-51.608c0-4.142-3.358-7.5-7.5-7.5z"/><path d="m421.491 262.927c4.143 0 7.5-3.358 7.5-7.5s-3.357-7.5-7.5-7.5h-21.548c-4.143 0-7.5 3.358-7.5 7.5v51.137c0 4.142 3.357 7.5 7.5 7.5h21.548c4.143 0 7.5-3.358 7.5-7.5s-3.357-7.5-7.5-7.5h-14.048v-10.568h12.459c4.143 0 7.5-3.358 7.5-7.5s-3.357-7.5-7.5-7.5h-12.459v-10.568h14.048z"/><path d="m314.798 274.365c-6.158-2.271-11.904-4.741-13.854-5.593-.854-.758-.866-1.75-.786-2.31.103-.711.635-2.456 3.368-3.279 6.701-2.019 13.021 2.919 13.238 3.092 3.169 2.624 7.869 2.204 10.521-.953 2.665-3.171 2.256-7.902-.915-10.567-.505-.424-12.535-10.343-27.171-5.935-7.52 2.265-12.842 8.208-13.89 15.51-.987 6.876 1.994 13.492 7.781 17.266.332.216.68.405 1.041.566.3.134 7.438 3.312 15.474 6.275 1.572.58 6.658 2.716 6.097 5.857-.43 2.406-3.604 5.003-7.982 5.003-4.838 0-9.483-1.939-12.428-5.187-2.782-3.069-7.526-3.301-10.594-.52-3.068 2.782-3.302 7.525-.52 10.594 5.825 6.427 14.405 10.113 23.541 10.113 11.385 0 20.952-7.304 22.749-17.367 1.361-7.611-2.042-17.537-15.67-22.565z"/><path d="m373.855 247.691h-28.501c-4.143 0-7.5 3.358-7.5 7.5s3.357 7.5 7.5 7.5h6.693v44.108c0 4.142 3.357 7.5 7.5 7.5s7.5-3.358 7.5-7.5v-44.108h6.808c4.143 0 7.5-3.358 7.5-7.5s-3.357-7.5-7.5-7.5z"/><path d="m242.381 247.691c-18.364 0-33.304 14.94-33.304 33.304s14.94 33.304 33.304 33.304 33.304-14.94 33.304-33.304-14.94-33.304-33.304-33.304zm0 51.608c-10.093 0-18.304-8.211-18.304-18.304s8.211-18.304 18.304-18.304 18.304 8.211 18.304 18.304-8.211 18.304-18.304 18.304z"/></g></g></svg>