<svg id="Layer_1" height="512" viewBox="0 0 128 128" width="512" xmlns="http://www.w3.org/2000/svg" data-name="Layer 1"><path d="m97.83 20.08h2.129a9.754 9.754 0 0 0 1.348 4.138l-1.245 1.245a1.75 1.75 0 0 0 2.475 2.475l1.09-1.091a9.74 9.74 0 0 0 4.293 1.942v1.381a1.75 1.75 0 0 0 3.5 0v-1.381a9.684 9.684 0 0 0 4.286-1.939l1.087 1.088a1.75 1.75 0 0 0 2.475-2.475l-1.244-1.244a9.746 9.746 0 0 0 1.356-4.139h2.12a1.75 1.75 0 0 0 0-3.5h-2.447a9.648 9.648 0 0 0 -1.738-3.421l1.953-1.951a1.75 1.75 0 0 0 -2.475-2.475l-2.113 2.112a9.7 9.7 0 0 0 -3.26-1.227v-3.118a1.75 1.75 0 0 0 -3.5 0v3.119a9.758 9.758 0 0 0 -3.267 1.229l-2.116-2.115a1.75 1.75 0 1 0 -2.475 2.475l1.957 1.955a9.7 9.7 0 0 0 -1.732 3.417h-2.457a1.75 1.75 0 0 0 0 3.5zm11.84 5.38a6.26 6.26 0 0 1 -4.751-2.189 6.156 6.156 0 0 1 -1.5-4.061 6.715 6.715 0 0 1 .04-.694 6.249 6.249 0 0 1 12.42 0 6.924 6.924 0 0 1 .04.7 6.267 6.267 0 0 1 -6.25 6.25z"/><path d="m116.378 55.9a12.052 12.052 0 0 0 -23.747 0l-4.111 23.611-1.6-9.161a9.773 9.773 0 0 0 -19.258 0l-5.26 30.2a6.551 6.551 0 0 0 6.454 7.67h6.686v13.28a1.75 1.75 0 0 0 3.5 0v-13.28h6.698a6.526 6.526 0 0 0 6.193-4.463 7.972 7.972 0 0 0 1.737.193h9.082v17.55a1.75 1.75 0 0 0 3.5 0v-17.55h9.087a7.908 7.908 0 0 0 7.792-9.266zm-28.409 47.843a3 3 0 0 1 -2.229.977h-6.694v-9.749l4.735-3.561a1.75 1.75 0 0 0 -2.1-2.8l-2.632 1.98v-9.461a1.75 1.75 0 0 0 -3.5 0v3.812l-1.518-1.141a1.75 1.75 0 0 0 -2.1 2.8l3.618 2.721v7.156l-3.784-2.846a1.75 1.75 0 0 0 -2.1 2.8l5.888 4.428v3.864h-6.693a3.051 3.051 0 0 1 -3.006-3.57l5.26-30.205a6.275 6.275 0 0 1 12.363.005l3.268 18.757-.867 4.978a7.847 7.847 0 0 0 2.843 7.516 3.041 3.041 0 0 1 -.752 1.539zm30.745-4.865a4.4 4.4 0 0 1 -3.375 1.572h-9.087v-13.262l6.279-4.722a1.75 1.75 0 1 0 -2.1-2.8l-4.176 3.14v-13.144a1.75 1.75 0 0 0 -3.5 0v5.891l-2.74-2.061a1.75 1.75 0 0 0 -2.1 2.8l4.844 3.642v10.431l-5.659-4.254a1.75 1.75 0 1 0 -2.1 2.8l7.759 5.835v5.707h-9.089a4.412 4.412 0 0 1 -4.345-5.165l6.753-38.788a8.554 8.554 0 0 1 16.853 0l6.753 38.783a4.4 4.4 0 0 1 -.97 3.595z"/><path d="m59.834 106.725h-2.014v-20.3a1.75 1.75 0 0 0 -1.75-1.75h-45.806a1.75 1.75 0 0 0 -1.75 1.75v3.819.039 16.445h-2.014a1.749 1.749 0 0 0 -1.75 1.75v6a1.75 1.75 0 0 0 1.75 1.75h2.01v5.272a1.75 1.75 0 0 0 1.75 1.75h6a1.75 1.75 0 0 0 1.75-1.75v-5.275h30.31v5.275a1.751 1.751 0 0 0 1.75 1.75h6a1.75 1.75 0 0 0 1.75-1.75v-5.275h2.014a1.75 1.75 0 0 0 1.75-1.75v-6a1.749 1.749 0 0 0 -1.75-1.75zm-8.014 0v-6.553h2.5v6.553zm-3.5-6.553v6.553h-30.31v-6.553zm-36.306-12h42.306v8.5h-4.23-.02-.019-33.772-.019-.02-4.226zm0 12h2.5v6.553h-2.5zm2.5 19.578h-2.5v-3.525h2.5zm39.81 0h-2.5v-3.525h2.5zm3.764-7.025h-1.97c-.015 0-.029 0-.044 0s-.028 0-.043 0h-5.917c-.015 0-.029 0-.044 0s-.028 0-.043 0h-33.727c-.014 0-.028 0-.043 0s-.029 0-.044 0h-5.913c-.014 0-.028 0-.043 0s-.029 0-.044 0h-1.963v-2.5h49.834z"/><path d="m27.792 46.515h3.708a6.17 6.17 0 0 0 4.371 1.833h13.171a6.167 6.167 0 0 0 .665-12.3c0-.039 0-.079 0-.119a6.173 6.173 0 0 0 -6.166-6.166h-13.166a6.178 6.178 0 0 0 -6.137 5.551 6.162 6.162 0 0 0 3.554 11.2zm-1.082-8.6a1.747 1.747 0 0 0 1.031-1.742 2.127 2.127 0 0 0 -.033-.244 2.669 2.669 0 0 1 2.667-2.666h13.167a2.669 2.669 0 0 1 2.666 2.666 2.633 2.633 0 0 1 -.25 1.1 1.751 1.751 0 0 0 1.591 2.48h1.493a2.667 2.667 0 0 1 0 5.333h-13.167a2.639 2.639 0 0 1 -2.152-1.111 1.749 1.749 0 0 0 -1.416-.722h-4.515a2.663 2.663 0 0 1 -1.082-5.1z"/></svg>