<?xml version="1.0" encoding="iso-8859-1"?>
<!-- Generator: Adobe Illustrator 19.0.0, SVG Export Plug-In . SVG Version: 6.00 Build 0)  -->
<svg version="1.1" id="Capa_1" xmlns="http://www.w3.org/2000/svg" xmlns:xlink="http://www.w3.org/1999/xlink" x="0px" y="0px"
	 viewBox="0 0 470.016 470.016" style="enable-background:new 0 0 470.016 470.016;" xml:space="preserve">
<g>
	<g>
		<path d="M407.921,63.514H62.095c-4.142,0-7.5,3.357-7.5,7.5v47.683c0,4.143,3.358,7.5,7.5,7.5h345.827c4.143,0,7.5-3.357,7.5-7.5
			V71.014C415.421,66.872,412.064,63.514,407.921,63.514z M400.421,111.197H69.595V78.514h330.827v32.683H400.421z"/>
		<path d="M469.539,212.126l-26.518-70.722V46.949c0-4.143-3.357-7.5-7.5-7.5H34.495c-4.142,0-7.5,3.357-7.5,7.5v94.454
			L0.478,212.126c-0.864,2.303-0.543,4.883,0.858,6.905c1.401,2.021,3.705,3.228,6.165,3.228h19.495v193.308H16.019
			c-4.142,0-7.5,3.357-7.5,7.5s3.358,7.5,7.5,7.5h437.979c4.143,0,7.5-3.357,7.5-7.5s-3.357-7.5-7.5-7.5h-10.977V222.259h19.495
			c2.46,0,4.764-1.206,6.164-3.228C470.082,217.009,470.402,214.428,469.539,212.126z M41.995,54.449h386.026v80.813H41.995V54.449z
			 M91.727,150.262L77.48,207.259H55.619l17.809-56.996L91.727,150.262L91.727,150.262z M107.188,150.262h18.527l-10.685,56.996
			H92.941L107.188,150.262z M140.976,150.262h18.699l-7.124,56.996H130.29L140.976,150.262z M174.791,150.262h18.815l-3.562,56.996
			h-22.377L174.791,150.262z M208.635,150.262h18.873v56.996h-22.435L208.635,150.262z M242.507,150.262h18.874l3.562,56.996
			h-22.436L242.507,150.262L242.507,150.262z M279.972,207.259l-3.562-56.996h18.814l7.123,56.996H279.972z M317.465,207.259
			l-7.123-56.996h18.698l10.686,56.996H317.465z M354.987,207.259l-10.686-56.996h18.526l14.247,56.996H354.987z M392.536,207.259
			l-14.247-56.996h18.299l17.808,56.996H392.536z M39.692,150.262h18.02l-17.808,56.997H18.322L39.692,150.262z M322.798,325.547
			h53.022v52.521h-53.022V325.547z M322.798,393.068h53.022v22.496h-53.022V393.068z M307.141,289.448l8.323-26.095h67.687
			l8.323,26.095H307.141z M375.821,304.448v6.099h-53.022v-6.099H375.821z M428.021,415.566h-37.2V304.448h10.918
			c2.394,0,4.644-1.143,6.056-3.075s1.817-4.424,1.09-6.704l-13.108-41.095c-0.992-3.109-3.882-5.221-7.146-5.221h-78.646
			c-3.264,0-6.153,2.111-7.146,5.221l-13.107,41.095c-0.728,2.28-0.322,4.771,1.09,6.704s3.662,3.075,6.056,3.075H307.8v111.118
			H41.995V222.259h386.026V415.566z M430.113,207.259l-17.808-56.996h18.018l21.371,56.996H430.113z"/>
		<path d="M66.644,304.448h9.018v78.94c0,4.143,3.358,7.5,7.5,7.5h162.962c4.143,0,7.5-3.357,7.5-7.5v-78.94h9.017
			c2.394,0,4.644-1.143,6.056-3.075s1.817-4.424,1.09-6.704l-13.107-41.095c-0.992-3.109-3.882-5.221-7.146-5.221H79.752
			c-3.264,0-6.153,2.111-7.146,5.221l-13.107,41.095c-0.727,2.28-0.322,4.771,1.09,6.704S64.251,304.448,66.644,304.448z
			 M238.624,375.888H90.662v-71.44h147.962L238.624,375.888L238.624,375.888z M85.232,263.353h158.82l8.323,26.095H76.909
			L85.232,263.353z"/>
	</g>
</g>
<g>
</g>
<g>
</g>
<g>
</g>
<g>
</g>
<g>
</g>
<g>
</g>
<g>
</g>
<g>
</g>
<g>
</g>
<g>
</g>
<g>
</g>
<g>
</g>
<g>
</g>
<g>
</g>
<g>
</g>
</svg>
